<?xml version="1.0" encoding="UTF-8" standalone="no"?>
<!DOCTYPE svg PUBLIC "-//W3C//DTD SVG 1.1//EN"
 "http://www.w3.org/Graphics/SVG/1.1/DTD/svg11.dtd">
<!-- Generated by graphviz version 2.47.0 (20210316.0004)
 -->
<!-- Title: dependencies Pages: 1 -->
<svg width="9330pt" height="284pt"
 viewBox="0.00 0.00 9330.00 284.00" xmlns="http://www.w3.org/2000/svg" xmlns:xlink="http://www.w3.org/1999/xlink">
<g id="graph0" class="graph" transform="scale(1 1) rotate(0) translate(4 280)">
<title>dependencies</title>
<polygon fill="white" stroke="transparent" points="-4,4 -4,-280 9326,-280 9326,4 -4,4"/>
<text text-anchor="start" x="4640.01" y="-42.4" font-family="Times-12" font-weight="bold" font-size="14.00">Legend</text>
<polygon fill="#ffffb3" stroke="transparent" points="4427,-10 4427,-30 4447,-30 4447,-10 4427,-10"/>
<text text-anchor="start" x="4450.63" y="-15.4" font-family="Times-12" font-size="14.00"> &#160;Declarations</text>
<polygon fill="#8dd3c7" stroke="transparent" points="4540,-10 4540,-30 4560,-30 4560,-10 4540,-10"/>
<text text-anchor="start" x="4563.73" y="-15.4" font-family="Times-12" font-size="14.00"> &#160;Module</text>
<polygon fill="#80b1d3" stroke="transparent" points="4626,-10 4626,-30 4646,-30 4646,-10 4626,-10"/>
<text text-anchor="start" x="4649.78" y="-15.4" font-family="Times-12" font-size="14.00"> &#160;Bootstrap</text>
<polygon fill="#fdb462" stroke="transparent" points="4723,-10 4723,-30 4743,-30 4743,-10 4723,-10"/>
<text text-anchor="start" x="4746.67" y="-15.4" font-family="Times-12" font-size="14.00"> &#160;Providers</text>
<polygon fill="#fb8072" stroke="transparent" points="4819,-10 4819,-30 4839,-30 4839,-10 4819,-10"/>
<text text-anchor="start" x="4842.73" y="-15.4" font-family="Times-12" font-size="14.00"> &#160;Exports</text>
<g id="clust1" class="cluster">
<title>cluster_AppModule</title>
<polygon fill="none" stroke="black" stroke-dasharray="1,5" points="8,-70 8,-268 9314,-268 9314,-70 8,-70"/>
</g>
<g id="clust53" class="cluster">
<title>cluster_AppModule_providers</title>
<polygon fill="none" stroke="black" points="8225,-78 8225,-130 9306,-130 9306,-78 8225,-78"/>
</g>
<g id="clust50" class="cluster">
<title>cluster_AppModule_imports</title>
<polygon fill="none" stroke="black" points="7965,-78 7965,-130 8217,-130 8217,-78 7965,-78"/>
</g>
<g id="clust52" class="cluster">
<title>cluster_AppModule_bootstrap</title>
<polygon fill="none" stroke="black" points="4427,-208 4427,-260 4551,-260 4551,-208 4427,-208"/>
</g>
<g id="clust2" class="cluster">
<title>cluster_AppModule_declarations</title>
<polygon fill="none" stroke="black" points="16,-78 16,-130 7957,-130 7957,-78 16,-78"/>
</g>
<!-- AddToCartComponent -->
<g id="node1" class="node">
<title>AddToCartComponent</title>
<polygon fill="#ffffb3" stroke="black" points="7948.59,-122 7803.41,-122 7803.41,-86 7948.59,-86 7948.59,-122"/>
<text text-anchor="middle" x="7876" y="-99.8" font-family="Times,serif" font-size="14.00">AddToCartComponent</text>
</g>
<!-- AppModule -->
<g id="node48" class="node">
<title>AppModule</title>
<polygon fill="#8dd3c7" stroke="black" points="4530.66,-187 4527.66,-191 4506.66,-191 4503.66,-187 4447.34,-187 4447.34,-151 4530.66,-151 4530.66,-187"/>
<text text-anchor="middle" x="4489" y="-164.8" font-family="Times,serif" font-size="14.00">AppModule</text>
</g>
<!-- AddToCartComponent&#45;&gt;AppModule -->
<g id="edge1" class="edge">
<title>AddToCartComponent&#45;&gt;AppModule</title>
<path fill="none" stroke="black" d="M7876,-122.28C7876,-143.32 7876,-175 7876,-175 7876,-175 4540.91,-175 4540.91,-175"/>
<polygon fill="black" stroke="black" points="4540.91,-171.5 4530.91,-175 4540.91,-178.5 4540.91,-171.5"/>
</g>
<!-- AddUpdateReviewComponent -->
<g id="node2" class="node">
<title>AddUpdateReviewComponent</title>
<polygon fill="#ffffb3" stroke="black" points="7785.13,-122 7596.87,-122 7596.87,-86 7785.13,-86 7785.13,-122"/>
<text text-anchor="middle" x="7691" y="-99.8" font-family="Times,serif" font-size="14.00">AddUpdateReviewComponent</text>
</g>
<!-- AddUpdateReviewComponent&#45;&gt;AppModule -->
<g id="edge2" class="edge">
<title>AddUpdateReviewComponent&#45;&gt;AppModule</title>
<path fill="none" stroke="black" d="M7691,-122.03C7691,-142.77 7691,-174 7691,-174 7691,-174 4540.95,-174 4540.95,-174"/>
<polygon fill="black" stroke="black" points="4540.95,-170.5 4530.95,-174 4540.95,-177.5 4540.95,-170.5"/>
</g>
<!-- AddbookComponent -->
<g id="node3" class="node">
<title>AddbookComponent</title>
<polygon fill="#ffffb3" stroke="black" points="7578.94,-122 7445.06,-122 7445.06,-86 7578.94,-86 7578.94,-122"/>
<text text-anchor="middle" x="7512" y="-99.8" font-family="Times,serif" font-size="14.00">AddbookComponent</text>
</g>
<!-- AddbookComponent&#45;&gt;AppModule -->
<g id="edge3" class="edge">
<title>AddbookComponent&#45;&gt;AppModule</title>
<path fill="none" stroke="black" d="M7512,-122.13C7512,-142.57 7512,-173 7512,-173 7512,-173 4540.87,-173 4540.87,-173"/>
<polygon fill="black" stroke="black" points="4540.87,-169.5 4530.87,-173 4540.87,-176.5 4540.87,-169.5"/>
</g>
<!-- AdminHomeComponent -->
<g id="node4" class="node">
<title>AdminHomeComponent</title>
<polygon fill="#ffffb3" stroke="black" points="7427.43,-122 7272.57,-122 7272.57,-86 7427.43,-86 7427.43,-122"/>
<text text-anchor="middle" x="7350" y="-99.8" font-family="Times,serif" font-size="14.00">AdminHomeComponent</text>
</g>
<!-- AdminHomeComponent&#45;&gt;AppModule -->
<g id="edge4" class="edge">
<title>AdminHomeComponent&#45;&gt;AppModule</title>
<path fill="none" stroke="black" d="M7350,-122.31C7350,-142.15 7350,-171 7350,-171 7350,-171 4540.82,-171 4540.82,-171"/>
<polygon fill="black" stroke="black" points="4540.82,-167.5 4530.82,-171 4540.82,-174.5 4540.82,-167.5"/>
</g>
<!-- AdminReturnProcessComponent -->
<g id="node5" class="node">
<title>AdminReturnProcessComponent</title>
<polygon fill="#ffffb3" stroke="black" points="7254.58,-122 7053.42,-122 7053.42,-86 7254.58,-86 7254.58,-122"/>
<text text-anchor="middle" x="7154" y="-99.8" font-family="Times,serif" font-size="14.00">AdminReturnProcessComponent</text>
</g>
<!-- AdminReturnProcessComponent&#45;&gt;AppModule -->
<g id="edge5" class="edge">
<title>AdminReturnProcessComponent&#45;&gt;AppModule</title>
<path fill="none" stroke="black" d="M7154,-122.03C7154,-141.58 7154,-170 7154,-170 7154,-170 4540.86,-170 4540.86,-170"/>
<polygon fill="black" stroke="black" points="4540.86,-166.5 4530.86,-170 4540.86,-173.5 4540.86,-166.5"/>
</g>
<!-- AllReviewsComponent -->
<g id="node6" class="node">
<title>AllReviewsComponent</title>
<polygon fill="#ffffb3" stroke="black" points="7035.93,-122 6888.07,-122 6888.07,-86 7035.93,-86 7035.93,-122"/>
<text text-anchor="middle" x="6962" y="-99.8" font-family="Times,serif" font-size="14.00">AllReviewsComponent</text>
</g>
<!-- AllReviewsComponent&#45;&gt;AppModule -->
<g id="edge6" class="edge">
<title>AllReviewsComponent&#45;&gt;AppModule</title>
<path fill="none" stroke="black" d="M6962,-122.11C6962,-141.34 6962,-169 6962,-169 6962,-169 4540.89,-169 4540.89,-169"/>
<polygon fill="black" stroke="black" points="4540.89,-165.5 4530.89,-169 4540.89,-172.5 4540.89,-165.5"/>
</g>
<!-- AllorderstatusComponent -->
<g id="node7" class="node">
<title>AllorderstatusComponent</title>
<polygon fill="#ffffb3" stroke="black" points="6870.14,-122 6709.86,-122 6709.86,-86 6870.14,-86 6870.14,-122"/>
<text text-anchor="middle" x="6790" y="-99.8" font-family="Times,serif" font-size="14.00">AllorderstatusComponent</text>
</g>
<!-- AllorderstatusComponent&#45;&gt;AppModule -->
<g id="edge7" class="edge">
<title>AllorderstatusComponent&#45;&gt;AppModule</title>
<path fill="none" stroke="black" d="M6790,-122.17C6790,-141.09 6790,-168 6790,-168 6790,-168 4540.9,-168 4540.9,-168"/>
<polygon fill="black" stroke="black" points="4540.9,-164.5 4530.9,-168 4540.9,-171.5 4540.9,-164.5"/>
</g>
<!-- AppComponent -->
<g id="node8" class="node">
<title>AppComponent</title>
<polygon fill="#ffffb3" stroke="black" points="6691.94,-122 6586.06,-122 6586.06,-86 6691.94,-86 6691.94,-122"/>
<text text-anchor="middle" x="6639" y="-99.8" font-family="Times,serif" font-size="14.00">AppComponent</text>
</g>
<!-- AppComponent&#45;&gt;AppModule -->
<g id="edge8" class="edge">
<title>AppComponent&#45;&gt;AppModule</title>
<path fill="none" stroke="black" d="M6639,-122.27C6639,-140.56 6639,-166 6639,-166 6639,-166 4540.98,-166 4540.98,-166"/>
<polygon fill="black" stroke="black" points="4540.98,-162.5 4530.98,-166 4540.98,-169.5 4540.98,-162.5"/>
</g>
<!-- AverageRatingComponent -->
<g id="node9" class="node">
<title>AverageRatingComponent</title>
<polygon fill="#ffffb3" stroke="black" points="6568.08,-122 6401.92,-122 6401.92,-86 6568.08,-86 6568.08,-122"/>
<text text-anchor="middle" x="6485" y="-99.8" font-family="Times,serif" font-size="14.00">AverageRatingComponent</text>
</g>
<!-- AverageRatingComponent&#45;&gt;AppModule -->
<g id="edge9" class="edge">
<title>AverageRatingComponent&#45;&gt;AppModule</title>
<path fill="none" stroke="black" d="M6485,-122.3C6485,-140.27 6485,-165 6485,-165 6485,-165 4540.69,-165 4540.69,-165"/>
<polygon fill="black" stroke="black" points="4540.69,-161.5 4530.69,-165 4540.69,-168.5 4540.69,-161.5"/>
</g>
<!-- BookCarouselComponent -->
<g id="node10" class="node">
<title>BookCarouselComponent</title>
<polygon fill="#ffffb3" stroke="black" points="6383.93,-122 6222.07,-122 6222.07,-86 6383.93,-86 6383.93,-122"/>
<text text-anchor="middle" x="6303" y="-99.8" font-family="Times,serif" font-size="14.00">BookCarouselComponent</text>
</g>
<!-- BookCarouselComponent&#45;&gt;AppModule -->
<g id="edge10" class="edge">
<title>BookCarouselComponent&#45;&gt;AppModule</title>
<path fill="none" stroke="black" d="M6303,-122C6303,-139.68 6303,-164 6303,-164 6303,-164 4540.73,-164 4540.73,-164"/>
<polygon fill="black" stroke="black" points="4540.73,-160.5 4530.73,-164 4540.73,-167.5 4540.73,-160.5"/>
</g>
<!-- BookDealComponent -->
<g id="node11" class="node">
<title>BookDealComponent</title>
<polygon fill="#ffffb3" stroke="black" points="6204.1,-122 6065.9,-122 6065.9,-86 6204.1,-86 6204.1,-122"/>
<text text-anchor="middle" x="6135" y="-99.8" font-family="Times,serif" font-size="14.00">BookDealComponent</text>
</g>
<!-- BookDealComponent&#45;&gt;AppModule -->
<g id="edge11" class="edge">
<title>BookDealComponent&#45;&gt;AppModule</title>
<path fill="none" stroke="black" d="M6135,-122.02C6135,-139.37 6135,-163 6135,-163 6135,-163 4540.93,-163 4540.93,-163"/>
<polygon fill="black" stroke="black" points="4540.93,-159.5 4530.93,-163 4540.93,-166.5 4540.93,-159.5"/>
</g>
<!-- BookHeroComponent -->
<g id="node12" class="node">
<title>BookHeroComponent</title>
<polygon fill="#ffffb3" stroke="black" points="6047.65,-122 5908.35,-122 5908.35,-86 6047.65,-86 6047.65,-122"/>
<text text-anchor="middle" x="5978" y="-99.8" font-family="Times,serif" font-size="14.00">BookHeroComponent</text>
</g>
<!-- BookHeroComponent&#45;&gt;AppModule -->
<g id="edge12" class="edge">
<title>BookHeroComponent&#45;&gt;AppModule</title>
<path fill="none" stroke="black" d="M5978,-122.04C5978,-138.73 5978,-161 5978,-161 5978,-161 4540.77,-161 4540.77,-161"/>
<polygon fill="black" stroke="black" points="4540.77,-157.5 4530.77,-161 4540.77,-164.5 4540.77,-157.5"/>
</g>
<!-- BookdetailsComponent -->
<g id="node13" class="node">
<title>BookdetailsComponent</title>
<polygon fill="#ffffb3" stroke="black" points="5890.21,-122 5741.79,-122 5741.79,-86 5890.21,-86 5890.21,-122"/>
<text text-anchor="middle" x="5816" y="-99.8" font-family="Times,serif" font-size="14.00">BookdetailsComponent</text>
</g>
<!-- BookdetailsComponent&#45;&gt;AppModule -->
<g id="edge13" class="edge">
<title>BookdetailsComponent&#45;&gt;AppModule</title>
<path fill="none" stroke="black" d="M5816,-122.03C5816,-138.4 5816,-160 5816,-160 5816,-160 4540.91,-160 4540.91,-160"/>
<polygon fill="black" stroke="black" points="4540.91,-156.5 4530.91,-160 4540.91,-163.5 4540.91,-156.5"/>
</g>
<!-- CartComponent -->
<g id="node14" class="node">
<title>CartComponent</title>
<polygon fill="#ffffb3" stroke="black" points="5723.94,-122 5618.06,-122 5618.06,-86 5723.94,-86 5723.94,-122"/>
<text text-anchor="middle" x="5671" y="-99.8" font-family="Times,serif" font-size="14.00">CartComponent</text>
</g>
<!-- CartComponent&#45;&gt;AppModule -->
<g id="edge14" class="edge">
<title>CartComponent&#45;&gt;AppModule</title>
<path fill="none" stroke="black" d="M5671,-122.01C5671,-138.05 5671,-159 5671,-159 5671,-159 4540.72,-159 4540.72,-159"/>
<polygon fill="black" stroke="black" points="4540.72,-155.5 4530.72,-159 4540.72,-162.5 4540.72,-155.5"/>
</g>
<!-- CategorybooksComponent -->
<g id="node15" class="node">
<title>CategorybooksComponent</title>
<polygon fill="#ffffb3" stroke="black" points="5600.09,-122 5433.91,-122 5433.91,-86 5600.09,-86 5600.09,-122"/>
<text text-anchor="middle" x="5517" y="-99.8" font-family="Times,serif" font-size="14.00">CategorybooksComponent</text>
</g>
<!-- CategorybooksComponent&#45;&gt;AppModule -->
<g id="edge15" class="edge">
<title>CategorybooksComponent&#45;&gt;AppModule</title>
<path fill="none" stroke="black" d="M5517,-122.28C5517,-137.95 5517,-158 5517,-158 5517,-158 4540.89,-158 4540.89,-158"/>
<polygon fill="black" stroke="black" points="4540.89,-154.5 4530.89,-158 4540.89,-161.5 4540.89,-154.5"/>
</g>
<!-- CategorybookslistComponent -->
<g id="node16" class="node">
<title>CategorybookslistComponent</title>
<polygon fill="#ffffb3" stroke="black" points="5415.71,-122 5232.29,-122 5232.29,-86 5415.71,-86 5415.71,-122"/>
<text text-anchor="middle" x="5324" y="-99.8" font-family="Times,serif" font-size="14.00">CategorybookslistComponent</text>
</g>
<!-- CategorybookslistComponent&#45;&gt;AppModule -->
<g id="edge16" class="edge">
<title>CategorybookslistComponent&#45;&gt;AppModule</title>
<path fill="none" stroke="black" d="M5324,-122.19C5324,-137.18 5324,-156 5324,-156 5324,-156 4540.69,-156 4540.69,-156"/>
<polygon fill="black" stroke="black" points="4540.69,-152.5 4530.69,-156 4540.69,-159.5 4540.69,-152.5"/>
</g>
<!-- DealOfTheDayComponent -->
<g id="node17" class="node">
<title>DealOfTheDayComponent</title>
<polygon fill="#ffffb3" stroke="black" points="5214.61,-122 5047.39,-122 5047.39,-86 5214.61,-86 5214.61,-122"/>
<text text-anchor="middle" x="5131" y="-99.8" font-family="Times,serif" font-size="14.00">DealOfTheDayComponent</text>
</g>
<!-- DealOfTheDayComponent&#45;&gt;AppModule -->
<g id="edge17" class="edge">
<title>DealOfTheDayComponent&#45;&gt;AppModule</title>
<path fill="none" stroke="black" d="M5131,-122.12C5131,-136.78 5131,-155 5131,-155 5131,-155 4541.12,-155 4541.12,-155"/>
<polygon fill="black" stroke="black" points="4541.12,-151.5 4531.12,-155 4541.12,-158.5 4541.12,-151.5"/>
</g>
<!-- DeleteBookInventoryComponent -->
<g id="node18" class="node">
<title>DeleteBookInventoryComponent</title>
<polygon fill="#ffffb3" stroke="black" points="5029.13,-122 4826.87,-122 4826.87,-86 5029.13,-86 5029.13,-122"/>
<text text-anchor="middle" x="4928" y="-99.8" font-family="Times,serif" font-size="14.00">DeleteBookInventoryComponent</text>
</g>
<!-- DeleteBookInventoryComponent&#45;&gt;AppModule -->
<g id="edge18" class="edge">
<title>DeleteBookInventoryComponent&#45;&gt;AppModule</title>
<path fill="none" stroke="black" d="M4928,-122.05C4928,-136.37 4928,-154 4928,-154 4928,-154 4540.7,-154 4540.7,-154"/>
<polygon fill="black" stroke="black" points="4540.7,-150.5 4530.7,-154 4540.7,-157.5 4540.7,-150.5"/>
</g>
<!-- DisplayInventoryComponent -->
<g id="node19" class="node">
<title>DisplayInventoryComponent</title>
<polygon fill="#ffffb3" stroke="black" points="4808.81,-122 4629.19,-122 4629.19,-86 4808.81,-86 4808.81,-122"/>
<text text-anchor="middle" x="4719" y="-99.8" font-family="Times,serif" font-size="14.00">DisplayInventoryComponent</text>
</g>
<!-- DisplayInventoryComponent&#45;&gt;AppModule -->
<g id="edge19" class="edge">
<title>DisplayInventoryComponent&#45;&gt;AppModule</title>
<path fill="none" stroke="black" d="M4719,-122.25C4719,-136.18 4719,-153 4719,-153 4719,-153 4540.92,-153 4540.92,-153"/>
<polygon fill="black" stroke="black" points="4540.92,-149.5 4530.92,-153 4540.92,-156.5 4540.92,-149.5"/>
</g>
<!-- FilterComponent -->
<g id="node20" class="node">
<title>FilterComponent</title>
<polygon fill="#ffffb3" stroke="black" points="4611.66,-122 4500.34,-122 4500.34,-86 4611.66,-86 4611.66,-122"/>
<text text-anchor="middle" x="4556" y="-99.8" font-family="Times,serif" font-size="14.00">FilterComponent</text>
</g>
<!-- FilterComponent&#45;&gt;AppModule -->
<g id="edge20" class="edge">
<title>FilterComponent&#45;&gt;AppModule</title>
<path fill="none" stroke="black" d="M4515.5,-122.11C4515.5,-122.11 4515.5,-140.99 4515.5,-140.99"/>
<polygon fill="black" stroke="black" points="4512,-140.99 4515.5,-150.99 4519,-140.99 4512,-140.99"/>
</g>
<!-- FooterComponent -->
<g id="node21" class="node">
<title>FooterComponent</title>
<polygon fill="#ffffb3" stroke="black" points="4481.88,-122 4364.12,-122 4364.12,-86 4481.88,-86 4481.88,-122"/>
<text text-anchor="middle" x="4423" y="-99.8" font-family="Times,serif" font-size="14.00">FooterComponent</text>
</g>
<!-- FooterComponent&#45;&gt;AppModule -->
<g id="edge21" class="edge">
<title>FooterComponent&#45;&gt;AppModule</title>
<path fill="none" stroke="black" d="M4464.56,-122.11C4464.56,-122.11 4464.56,-140.99 4464.56,-140.99"/>
<polygon fill="black" stroke="black" points="4461.06,-140.99 4464.56,-150.99 4468.06,-140.99 4461.06,-140.99"/>
</g>
<!-- HomeComponent -->
<g id="node22" class="node">
<title>HomeComponent</title>
<polygon fill="#ffffb3" stroke="black" points="4345.55,-122 4230.45,-122 4230.45,-86 4345.55,-86 4345.55,-122"/>
<text text-anchor="middle" x="4288" y="-99.8" font-family="Times,serif" font-size="14.00">HomeComponent</text>
</g>
<!-- HomeComponent&#45;&gt;AppModule -->
<g id="edge22" class="edge">
<title>HomeComponent&#45;&gt;AppModule</title>
<path fill="none" stroke="black" d="M4288,-122.25C4288,-136.18 4288,-153 4288,-153 4288,-153 4436.86,-153 4436.86,-153"/>
<polygon fill="black" stroke="black" points="4436.86,-156.5 4446.86,-153 4436.86,-149.5 4436.86,-156.5"/>
</g>
<!-- LeftSidebarComponent -->
<g id="node23" class="node">
<title>LeftSidebarComponent</title>
<polygon fill="#ffffb3" stroke="black" points="4212.91,-122 4065.09,-122 4065.09,-86 4212.91,-86 4212.91,-122"/>
<text text-anchor="middle" x="4139" y="-99.8" font-family="Times,serif" font-size="14.00">LeftSidebarComponent</text>
</g>
<!-- LeftSidebarComponent&#45;&gt;AppModule -->
<g id="edge23" class="edge">
<title>LeftSidebarComponent&#45;&gt;AppModule</title>
<path fill="none" stroke="black" d="M4139,-122.05C4139,-136.37 4139,-154 4139,-154 4139,-154 4437.13,-154 4437.13,-154"/>
<polygon fill="black" stroke="black" points="4437.13,-157.5 4447.13,-154 4437.13,-150.5 4437.13,-157.5"/>
</g>
<!-- LoginComponent -->
<g id="node24" class="node">
<title>LoginComponent</title>
<polygon fill="#ffffb3" stroke="black" points="4047.28,-122 3932.72,-122 3932.72,-86 4047.28,-86 4047.28,-122"/>
<text text-anchor="middle" x="3990" y="-99.8" font-family="Times,serif" font-size="14.00">LoginComponent</text>
</g>
<!-- LoginComponent&#45;&gt;AppModule -->
<g id="edge24" class="edge">
<title>LoginComponent&#45;&gt;AppModule</title>
<path fill="none" stroke="black" d="M3990,-122.12C3990,-136.78 3990,-155 3990,-155 3990,-155 4437.31,-155 4437.31,-155"/>
<polygon fill="black" stroke="black" points="4437.31,-158.5 4447.31,-155 4437.31,-151.5 4437.31,-158.5"/>
</g>
<!-- MainComponent -->
<g id="node25" class="node">
<title>MainComponent</title>
<polygon fill="#ffffb3" stroke="black" points="3914.38,-122 3803.62,-122 3803.62,-86 3914.38,-86 3914.38,-122"/>
<text text-anchor="middle" x="3859" y="-99.8" font-family="Times,serif" font-size="14.00">MainComponent</text>
</g>
<!-- MainComponent&#45;&gt;AppModule -->
<g id="edge25" class="edge">
<title>MainComponent&#45;&gt;AppModule</title>
<path fill="none" stroke="black" d="M3859,-122.19C3859,-137.18 3859,-156 3859,-156 3859,-156 4437.18,-156 4437.18,-156"/>
<polygon fill="black" stroke="black" points="4437.18,-159.5 4447.18,-156 4437.18,-152.5 4437.18,-159.5"/>
</g>
<!-- NavbarAdminComponent -->
<g id="node26" class="node">
<title>NavbarAdminComponent</title>
<polygon fill="#ffffb3" stroke="black" points="3785.92,-122 3624.08,-122 3624.08,-86 3785.92,-86 3785.92,-122"/>
<text text-anchor="middle" x="3705" y="-99.8" font-family="Times,serif" font-size="14.00">NavbarAdminComponent</text>
</g>
<!-- NavbarAdminComponent&#45;&gt;AppModule -->
<g id="edge26" class="edge">
<title>NavbarAdminComponent&#45;&gt;AppModule</title>
<path fill="none" stroke="black" d="M3705,-122.28C3705,-137.95 3705,-158 3705,-158 3705,-158 4437.13,-158 4437.13,-158"/>
<polygon fill="black" stroke="black" points="4437.13,-161.5 4447.13,-158 4437.13,-154.5 4437.13,-161.5"/>
</g>
<!-- NavbarComponent -->
<g id="node27" class="node">
<title>NavbarComponent</title>
<polygon fill="#ffffb3" stroke="black" points="3606.03,-122 3483.97,-122 3483.97,-86 3606.03,-86 3606.03,-122"/>
<text text-anchor="middle" x="3545" y="-99.8" font-family="Times,serif" font-size="14.00">NavbarComponent</text>
</g>
<!-- NavbarComponent&#45;&gt;AppModule -->
<g id="edge27" class="edge">
<title>NavbarComponent&#45;&gt;AppModule</title>
<path fill="none" stroke="black" d="M3545,-122.01C3545,-138.05 3545,-159 3545,-159 3545,-159 4437.22,-159 4437.22,-159"/>
<polygon fill="black" stroke="black" points="4437.22,-162.5 4447.22,-159 4437.22,-155.5 4437.22,-162.5"/>
</g>
<!-- OrderDetailsComponent -->
<g id="node28" class="node">
<title>OrderDetailsComponent</title>
<polygon fill="#ffffb3" stroke="black" points="3465.63,-122 3312.37,-122 3312.37,-86 3465.63,-86 3465.63,-122"/>
<text text-anchor="middle" x="3389" y="-99.8" font-family="Times,serif" font-size="14.00">OrderDetailsComponent</text>
</g>
<!-- OrderDetailsComponent&#45;&gt;AppModule -->
<g id="edge28" class="edge">
<title>OrderDetailsComponent&#45;&gt;AppModule</title>
<path fill="none" stroke="black" d="M3389,-122.03C3389,-138.4 3389,-160 3389,-160 3389,-160 4437.22,-160 4437.22,-160"/>
<polygon fill="black" stroke="black" points="4437.22,-163.5 4447.22,-160 4437.22,-156.5 4437.22,-163.5"/>
</g>
<!-- OrderListComponent -->
<g id="node29" class="node">
<title>OrderListComponent</title>
<polygon fill="#ffffb3" stroke="black" points="3293.75,-122 3158.25,-122 3158.25,-86 3293.75,-86 3293.75,-122"/>
<text text-anchor="middle" x="3226" y="-99.8" font-family="Times,serif" font-size="14.00">OrderListComponent</text>
</g>
<!-- OrderListComponent&#45;&gt;AppModule -->
<g id="edge29" class="edge">
<title>OrderListComponent&#45;&gt;AppModule</title>
<path fill="none" stroke="black" d="M3226,-122.04C3226,-138.73 3226,-161 3226,-161 3226,-161 4437.34,-161 4437.34,-161"/>
<polygon fill="black" stroke="black" points="4437.34,-164.5 4447.34,-161 4437.34,-157.5 4437.34,-164.5"/>
</g>
<!-- OrderManagementComponent -->
<g id="node30" class="node">
<title>OrderManagementComponent</title>
<polygon fill="#ffffb3" stroke="black" points="3140.56,-122 2953.44,-122 2953.44,-86 3140.56,-86 3140.56,-122"/>
<text text-anchor="middle" x="3047" y="-99.8" font-family="Times,serif" font-size="14.00">OrderManagementComponent</text>
</g>
<!-- OrderManagementComponent&#45;&gt;AppModule -->
<g id="edge30" class="edge">
<title>OrderManagementComponent&#45;&gt;AppModule</title>
<path fill="none" stroke="black" d="M3047,-122.02C3047,-139.37 3047,-163 3047,-163 3047,-163 4437.01,-163 4437.01,-163"/>
<polygon fill="black" stroke="black" points="4437.01,-166.5 4447.01,-163 4437.01,-159.5 4437.01,-166.5"/>
</g>
<!-- OrderTrackingComponent -->
<g id="node31" class="node">
<title>OrderTrackingComponent</title>
<polygon fill="#ffffb3" stroke="black" points="2935.01,-122 2770.99,-122 2770.99,-86 2935.01,-86 2935.01,-122"/>
<text text-anchor="middle" x="2853" y="-99.8" font-family="Times,serif" font-size="14.00">OrderTrackingComponent</text>
</g>
<!-- OrderTrackingComponent&#45;&gt;AppModule -->
<g id="edge31" class="edge">
<title>OrderTrackingComponent&#45;&gt;AppModule</title>
<path fill="none" stroke="black" d="M2853,-122C2853,-139.68 2853,-164 2853,-164 2853,-164 4437.33,-164 4437.33,-164"/>
<polygon fill="black" stroke="black" points="4437.33,-167.5 4447.33,-164 4437.33,-160.5 4437.33,-167.5"/>
</g>
<!-- PaymentComponent -->
<g id="node32" class="node">
<title>PaymentComponent</title>
<polygon fill="#ffffb3" stroke="black" points="2753.33,-122 2622.67,-122 2622.67,-86 2753.33,-86 2753.33,-122"/>
<text text-anchor="middle" x="2688" y="-99.8" font-family="Times,serif" font-size="14.00">PaymentComponent</text>
</g>
<!-- PaymentComponent&#45;&gt;AppModule -->
<g id="edge32" class="edge">
<title>PaymentComponent&#45;&gt;AppModule</title>
<path fill="none" stroke="black" d="M2688,-122.3C2688,-140.27 2688,-165 2688,-165 2688,-165 4437.13,-165 4437.13,-165"/>
<polygon fill="black" stroke="black" points="4437.13,-168.5 4447.13,-165 4437.13,-161.5 4437.13,-168.5"/>
</g>
<!-- PlaceOrderComponent -->
<g id="node33" class="node">
<title>PlaceOrderComponent</title>
<polygon fill="#ffffb3" stroke="black" points="2605.29,-122 2460.71,-122 2460.71,-86 2605.29,-86 2605.29,-122"/>
<text text-anchor="middle" x="2533" y="-99.8" font-family="Times,serif" font-size="14.00">PlaceOrderComponent</text>
</g>
<!-- PlaceOrderComponent&#45;&gt;AppModule -->
<g id="edge33" class="edge">
<title>PlaceOrderComponent&#45;&gt;AppModule</title>
<path fill="none" stroke="black" d="M2557.05,-122.27C2557.05,-140.56 2557.05,-166 2557.05,-166 2557.05,-166 4437.3,-166 4437.3,-166"/>
<polygon fill="black" stroke="black" points="4437.3,-169.5 4447.3,-166 4437.3,-162.5 4437.3,-169.5"/>
</g>
<!-- PlaceOrderComponent&#45;&gt;AppModule -->
<g id="edge34" class="edge">
<title>PlaceOrderComponent&#45;&gt;AppModule</title>
<path fill="none" stroke="black" d="M2508.95,-122.17C2508.95,-141.09 2508.95,-168 2508.95,-168 2508.95,-168 4437.19,-168 4437.19,-168"/>
<polygon fill="black" stroke="black" points="4437.19,-171.5 4447.19,-168 4437.19,-164.5 4437.19,-171.5"/>
</g>
<!-- ReviewComponent -->
<g id="node34" class="node">
<title>ReviewComponent</title>
<polygon fill="#ffffb3" stroke="black" points="2443.1,-122 2318.9,-122 2318.9,-86 2443.1,-86 2443.1,-122"/>
<text text-anchor="middle" x="2381" y="-99.8" font-family="Times,serif" font-size="14.00">ReviewComponent</text>
</g>
<!-- ReviewComponent&#45;&gt;AppModule -->
<g id="edge35" class="edge">
<title>ReviewComponent&#45;&gt;AppModule</title>
<path fill="none" stroke="black" d="M2381,-122.11C2381,-141.34 2381,-169 2381,-169 2381,-169 4436.89,-169 4436.89,-169"/>
<polygon fill="black" stroke="black" points="4436.89,-172.5 4446.89,-169 4436.89,-165.5 4436.89,-172.5"/>
</g>
<!-- ReviewsByBookIdComponent -->
<g id="node35" class="node">
<title>ReviewsByBookIdComponent</title>
<polygon fill="#ffffb3" stroke="black" points="2300.87,-122 2113.13,-122 2113.13,-86 2300.87,-86 2300.87,-122"/>
<text text-anchor="middle" x="2207" y="-99.8" font-family="Times,serif" font-size="14.00">ReviewsByBookIdComponent</text>
</g>
<!-- ReviewsByBookIdComponent&#45;&gt;AppModule -->
<g id="edge36" class="edge">
<title>ReviewsByBookIdComponent&#45;&gt;AppModule</title>
<path fill="none" stroke="black" d="M2207,-122.03C2207,-141.58 2207,-170 2207,-170 2207,-170 4436.95,-170 4436.95,-170"/>
<polygon fill="black" stroke="black" points="4436.95,-173.5 4446.95,-170 4436.95,-166.5 4436.95,-173.5"/>
</g>
<!-- ReviewsByUserIdComponent -->
<g id="node36" class="node">
<title>ReviewsByUserIdComponent</title>
<polygon fill="#ffffb3" stroke="black" points="2094.96,-122 1911.04,-122 1911.04,-86 2094.96,-86 2094.96,-122"/>
<text text-anchor="middle" x="2003" y="-99.8" font-family="Times,serif" font-size="14.00">ReviewsByUserIdComponent</text>
</g>
<!-- ReviewsByUserIdComponent&#45;&gt;AppModule -->
<g id="edge37" class="edge">
<title>ReviewsByUserIdComponent&#45;&gt;AppModule</title>
<path fill="none" stroke="black" d="M2003,-122.31C2003,-142.15 2003,-171 2003,-171 2003,-171 4437.15,-171 4437.15,-171"/>
<polygon fill="black" stroke="black" points="4437.15,-174.5 4447.15,-171 4437.15,-167.5 4437.15,-174.5"/>
</g>
<!-- SearchtitleComponent -->
<g id="node37" class="node">
<title>SearchtitleComponent</title>
<polygon fill="#ffffb3" stroke="black" points="1892.7,-122 1751.3,-122 1751.3,-86 1892.7,-86 1892.7,-122"/>
<text text-anchor="middle" x="1822" y="-99.8" font-family="Times,serif" font-size="14.00">SearchtitleComponent</text>
</g>
<!-- SearchtitleComponent&#45;&gt;AppModule -->
<g id="edge38" class="edge">
<title>SearchtitleComponent&#45;&gt;AppModule</title>
<path fill="none" stroke="black" d="M1822,-122.13C1822,-142.57 1822,-173 1822,-173 1822,-173 4437.11,-173 4437.11,-173"/>
<polygon fill="black" stroke="black" points="4437.11,-176.5 4447.11,-173 4437.11,-169.5 4437.11,-176.5"/>
</g>
<!-- SignupComponent -->
<g id="node38" class="node">
<title>SignupComponent</title>
<polygon fill="#ffffb3" stroke="black" points="1733.51,-122 1612.49,-122 1612.49,-86 1733.51,-86 1733.51,-122"/>
<text text-anchor="middle" x="1673" y="-99.8" font-family="Times,serif" font-size="14.00">SignupComponent</text>
</g>
<!-- SignupComponent&#45;&gt;AppModule -->
<g id="edge39" class="edge">
<title>SignupComponent&#45;&gt;AppModule</title>
<path fill="none" stroke="black" d="M1673,-122.03C1673,-142.77 1673,-174 1673,-174 1673,-174 4437.28,-174 4437.28,-174"/>
<polygon fill="black" stroke="black" points="4437.28,-177.5 4447.28,-174 4437.28,-170.5 4437.28,-177.5"/>
</g>
<!-- StarsComponent -->
<g id="node39" class="node">
<title>StarsComponent</title>
<polygon fill="#ffffb3" stroke="black" points="1594.83,-122 1485.17,-122 1485.17,-86 1594.83,-86 1594.83,-122"/>
<text text-anchor="middle" x="1540" y="-99.8" font-family="Times,serif" font-size="14.00">StarsComponent</text>
</g>
<!-- StarsComponent&#45;&gt;AppModule -->
<g id="edge40" class="edge">
<title>StarsComponent&#45;&gt;AppModule</title>
<path fill="none" stroke="black" d="M1540,-122.28C1540,-143.32 1540,-175 1540,-175 1540,-175 4437.31,-175 4437.31,-175"/>
<polygon fill="black" stroke="black" points="4437.31,-178.5 4447.31,-175 4437.31,-171.5 4437.31,-178.5"/>
</g>
<!-- UpdateQuantityComponent -->
<g id="node40" class="node">
<title>UpdateQuantityComponent</title>
<polygon fill="#ffffb3" stroke="black" points="1467.25,-122 1296.75,-122 1296.75,-86 1467.25,-86 1467.25,-122"/>
<text text-anchor="middle" x="1382" y="-99.8" font-family="Times,serif" font-size="14.00">UpdateQuantityComponent</text>
</g>
<!-- UpdateQuantityComponent&#45;&gt;AppModule -->
<g id="edge41" class="edge">
<title>UpdateQuantityComponent&#45;&gt;AppModule</title>
<path fill="none" stroke="black" d="M1382,-122.17C1382,-143.5 1382,-176 1382,-176 1382,-176 4437.14,-176 4437.14,-176"/>
<polygon fill="black" stroke="black" points="4437.14,-179.5 4447.14,-176 4437.14,-172.5 4437.14,-179.5"/>
</g>
<!-- UpdateTrackingComponent -->
<g id="node41" class="node">
<title>UpdateTrackingComponent</title>
<polygon fill="#ffffb3" stroke="black" points="1278.29,-122 1105.71,-122 1105.71,-86 1278.29,-86 1278.29,-122"/>
<text text-anchor="middle" x="1192" y="-99.8" font-family="Times,serif" font-size="14.00">UpdateTrackingComponent</text>
</g>
<!-- UpdateTrackingComponent&#45;&gt;AppModule -->
<g id="edge42" class="edge">
<title>UpdateTrackingComponent&#45;&gt;AppModule</title>
<path fill="none" stroke="black" d="M1192,-122.29C1192,-144.21 1192,-178 1192,-178 1192,-178 4437.31,-178 4437.31,-178"/>
<polygon fill="black" stroke="black" points="4437.31,-181.5 4447.31,-178 4437.31,-174.5 4437.31,-181.5"/>
</g>
<!-- UpdatebookComponent -->
<g id="node42" class="node">
<title>UpdatebookComponent</title>
<polygon fill="#ffffb3" stroke="black" points="1087.76,-122 938.24,-122 938.24,-86 1087.76,-86 1087.76,-122"/>
<text text-anchor="middle" x="1013" y="-99.8" font-family="Times,serif" font-size="14.00">UpdatebookComponent</text>
</g>
<!-- UpdatebookComponent&#45;&gt;AppModule -->
<g id="edge43" class="edge">
<title>UpdatebookComponent&#45;&gt;AppModule</title>
<path fill="none" stroke="black" d="M1013,-122.16C1013,-144.35 1013,-179 1013,-179 1013,-179 4437.23,-179 4437.23,-179"/>
<polygon fill="black" stroke="black" points="4437.23,-182.5 4447.23,-179 4437.23,-175.5 4437.23,-182.5"/>
</g>
<!-- UserProfileComponent -->
<g id="node43" class="node">
<title>UserProfileComponent</title>
<polygon fill="#ffffb3" stroke="black" points="919.86,-122 774.14,-122 774.14,-86 919.86,-86 919.86,-122"/>
<text text-anchor="middle" x="847" y="-99.8" font-family="Times,serif" font-size="14.00">UserProfileComponent</text>
</g>
<!-- UserProfileComponent&#45;&gt;AppModule -->
<g id="edge44" class="edge">
<title>UserProfileComponent&#45;&gt;AppModule</title>
<path fill="none" stroke="black" d="M847,-122.01C847,-144.49 847,-180 847,-180 847,-180 4437.16,-180 4437.16,-180"/>
<polygon fill="black" stroke="black" points="4437.16,-183.5 4447.16,-180 4437.16,-176.5 4437.16,-183.5"/>
</g>
<!-- ViewAllReviewsComponent -->
<g id="node44" class="node">
<title>ViewAllReviewsComponent</title>
<polygon fill="#ffffb3" stroke="black" points="755.75,-122 578.25,-122 578.25,-86 755.75,-86 755.75,-122"/>
<text text-anchor="middle" x="667" y="-99.8" font-family="Times,serif" font-size="14.00">ViewAllReviewsComponent</text>
</g>
<!-- ViewAllReviewsComponent&#45;&gt;AppModule -->
<g id="edge45" class="edge">
<title>ViewAllReviewsComponent&#45;&gt;AppModule</title>
<path fill="none" stroke="black" d="M667,-122.25C667,-145.02 667,-181 667,-181 667,-181 4437.06,-181 4437.06,-181"/>
<polygon fill="black" stroke="black" points="4437.06,-184.5 4447.06,-181 4437.06,-177.5 4437.06,-184.5"/>
</g>
<!-- ViewByBookIDComponent -->
<g id="node45" class="node">
<title>ViewByBookIDComponent</title>
<polygon fill="#ffffb3" stroke="black" points="560.59,-122 387.41,-122 387.41,-86 560.59,-86 560.59,-122"/>
<text text-anchor="middle" x="474" y="-99.8" font-family="Times,serif" font-size="14.00">ViewByBookIDComponent</text>
</g>
<!-- ViewByBookIDComponent&#45;&gt;AppModule -->
<g id="edge46" class="edge">
<title>ViewByBookIDComponent&#45;&gt;AppModule</title>
<path fill="none" stroke="black" d="M474,-122.32C474,-145.66 474,-183 474,-183 474,-183 4437.29,-183 4437.29,-183"/>
<polygon fill="black" stroke="black" points="4437.29,-186.5 4447.29,-183 4437.29,-179.5 4437.29,-186.5"/>
</g>
<!-- ViewEditReviewComponent -->
<g id="node46" class="node">
<title>ViewEditReviewComponent</title>
<polygon fill="#ffffb3" stroke="black" points="369.75,-122 192.25,-122 192.25,-86 369.75,-86 369.75,-122"/>
<text text-anchor="middle" x="281" y="-99.8" font-family="Times,serif" font-size="14.00">ViewEditReviewComponent</text>
</g>
<!-- ViewEditReviewComponent&#45;&gt;AppModule -->
<g id="edge47" class="edge">
<title>ViewEditReviewComponent&#45;&gt;AppModule</title>
<path fill="none" stroke="black" d="M281,-122.15C281,-145.76 281,-184 281,-184 281,-184 4437.01,-184 4437.01,-184"/>
<polygon fill="black" stroke="black" points="4437.01,-187.5 4447.01,-184 4437.01,-180.5 4437.01,-187.5"/>
</g>
<!-- ViewbookidComponent -->
<g id="node47" class="node">
<title>ViewbookidComponent</title>
<polygon fill="#ffffb3" stroke="black" points="174.04,-122 23.96,-122 23.96,-86 174.04,-86 174.04,-122"/>
<text text-anchor="middle" x="99" y="-99.8" font-family="Times,serif" font-size="14.00">ViewbookidComponent</text>
</g>
<!-- ViewbookidComponent&#45;&gt;AppModule -->
<g id="edge48" class="edge">
<title>ViewbookidComponent&#45;&gt;AppModule</title>
<path fill="none" stroke="black" d="M124.09,-122.38C124.09,-146.28 124.09,-185 124.09,-185 124.09,-185 4437.2,-185 4437.2,-185"/>
<polygon fill="black" stroke="black" points="4437.2,-188.5 4447.2,-185 4437.2,-181.5 4437.2,-188.5"/>
</g>
<!-- ViewbookidComponent&#45;&gt;AppModule -->
<g id="edge49" class="edge">
<title>ViewbookidComponent&#45;&gt;AppModule</title>
<path fill="none" stroke="black" d="M73.91,-122.2C73.91,-146.36 73.91,-186 73.91,-186 73.91,-186 4437.07,-186 4437.07,-186"/>
<polygon fill="black" stroke="black" points="4437.07,-189.5 4447.07,-186 4437.07,-182.5 4437.07,-189.5"/>
</g>
<!-- AppComponent  -->
<g id="node51" class="node">
<title>AppComponent </title>
<polygon fill="#80b1d3" stroke="black" points="4543.44,-252 4434.56,-252 4434.56,-216 4543.44,-216 4543.44,-252"/>
<text text-anchor="middle" x="4489" y="-229.8" font-family="Times,serif" font-size="14.00">AppComponent </text>
</g>
<!-- AppModule&#45;&gt;AppComponent  -->
<g id="edge52" class="edge">
<title>AppModule&#45;&gt;AppComponent </title>
<path fill="none" stroke="black" stroke-dasharray="1,5" d="M4489,-187.11C4489,-187.11 4489,-205.99 4489,-205.99"/>
<polygon fill="black" stroke="black" points="4485.5,-205.99 4489,-215.99 4492.5,-205.99 4485.5,-205.99"/>
</g>
<!-- AppRoutingModule -->
<g id="node49" class="node">
<title>AppRoutingModule</title>
<polygon fill="#8dd3c7" stroke="black" points="8209.27,-122 8206.27,-126 8185.27,-126 8182.27,-122 8080.73,-122 8080.73,-86 8209.27,-86 8209.27,-122"/>
<text text-anchor="middle" x="8145" y="-99.8" font-family="Times,serif" font-size="14.00">AppRoutingModule</text>
</g>
<!-- AppRoutingModule&#45;&gt;AppModule -->
<g id="edge50" class="edge">
<title>AppRoutingModule&#45;&gt;AppModule</title>
<path fill="none" stroke="black" d="M8145,-122.29C8145,-144.21 8145,-178 8145,-178 8145,-178 4540.69,-178 4540.69,-178"/>
<polygon fill="black" stroke="black" points="4540.69,-174.5 4530.69,-178 4540.69,-181.5 4540.69,-174.5"/>
</g>
<!-- RouterOutlet -->
<g id="node50" class="node">
<title>RouterOutlet</title>
<polygon fill="#8dd3c7" stroke="black" points="8062.6,-122 8059.6,-126 8038.6,-126 8035.6,-122 7973.4,-122 7973.4,-86 8062.6,-86 8062.6,-122"/>
<text text-anchor="middle" x="8018" y="-99.8" font-family="Times,serif" font-size="14.00">RouterOutlet</text>
</g>
<!-- RouterOutlet&#45;&gt;AppModule -->
<g id="edge51" class="edge">
<title>RouterOutlet&#45;&gt;AppModule</title>
<path fill="none" stroke="black" d="M8018,-122.17C8018,-143.5 8018,-176 8018,-176 8018,-176 4540.78,-176 4540.78,-176"/>
<polygon fill="black" stroke="black" points="4540.78,-172.5 4530.78,-176 4540.78,-179.5 4540.78,-172.5"/>
</g>
<!-- AuthInterceptor -->
<g id="node52" class="node">
<title>AuthInterceptor</title>
<ellipse fill="#fdb462" stroke="black" cx="9225" cy="-104" rx="72.91" ry="18"/>
<text text-anchor="middle" x="9225" y="-99.8" font-family="Times,serif" font-size="14.00">AuthInterceptor</text>
</g>
<!-- AuthInterceptor&#45;&gt;AppModule -->
<g id="edge53" class="edge">
<title>AuthInterceptor&#45;&gt;AppModule</title>
<path fill="none" stroke="black" d="M9225,-122.2C9225,-146.36 9225,-186 9225,-186 9225,-186 4540.66,-186 4540.66,-186"/>
<polygon fill="black" stroke="black" points="4540.66,-182.5 4530.66,-186 4540.66,-189.5 4540.66,-182.5"/>
</g>
<!-- BookInfoService -->
<g id="node53" class="node">
<title>BookInfoService</title>
<ellipse fill="#fdb462" stroke="black" cx="9057" cy="-104" rx="77.01" ry="18"/>
<text text-anchor="middle" x="9057" y="-99.8" font-family="Times,serif" font-size="14.00">BookInfoService</text>
</g>
<!-- BookInfoService&#45;&gt;AppModule -->
<g id="edge54" class="edge">
<title>BookInfoService&#45;&gt;AppModule</title>
<path fill="none" stroke="black" d="M9057,-122.38C9057,-146.28 9057,-185 9057,-185 9057,-185 4540.95,-185 4540.95,-185"/>
<polygon fill="black" stroke="black" points="4540.95,-181.5 4530.95,-185 4540.95,-188.5 4540.95,-181.5"/>
</g>
<!-- BookService -->
<g id="node54" class="node">
<title>BookService</title>
<ellipse fill="#fdb462" stroke="black" cx="8901" cy="-104" rx="60.84" ry="18"/>
<text text-anchor="middle" x="8901" y="-99.8" font-family="Times,serif" font-size="14.00">BookService</text>
</g>
<!-- BookService&#45;&gt;AppModule -->
<g id="edge55" class="edge">
<title>BookService&#45;&gt;AppModule</title>
<path fill="none" stroke="black" d="M8901,-122.15C8901,-145.76 8901,-184 8901,-184 8901,-184 4540.9,-184 4540.9,-184"/>
<polygon fill="black" stroke="black" points="4540.9,-180.5 4530.9,-184 4540.9,-187.5 4540.9,-180.5"/>
</g>
<!-- InventoryService -->
<g id="node55" class="node">
<title>InventoryService</title>
<ellipse fill="#fdb462" stroke="black" cx="8745" cy="-104" rx="77.57" ry="18"/>
<text text-anchor="middle" x="8745" y="-99.8" font-family="Times,serif" font-size="14.00">InventoryService</text>
</g>
<!-- InventoryService&#45;&gt;AppModule -->
<g id="edge56" class="edge">
<title>InventoryService&#45;&gt;AppModule</title>
<path fill="none" stroke="black" d="M8745,-122.32C8745,-145.66 8745,-183 8745,-183 8745,-183 4540.78,-183 4540.78,-183"/>
<polygon fill="black" stroke="black" points="4540.78,-179.5 4530.78,-183 4540.78,-186.5 4540.78,-179.5"/>
</g>
<!-- OrderService -->
<g id="node56" class="node">
<title>OrderService</title>
<ellipse fill="#fdb462" stroke="black" cx="8587" cy="-104" rx="62.52" ry="18"/>
<text text-anchor="middle" x="8587" y="-99.8" font-family="Times,serif" font-size="14.00">OrderService</text>
</g>
<!-- OrderService&#45;&gt;AppModule -->
<g id="edge57" class="edge">
<title>OrderService&#45;&gt;AppModule</title>
<path fill="none" stroke="black" d="M8587,-122.25C8587,-145.02 8587,-181 8587,-181 8587,-181 4540.89,-181 4540.89,-181"/>
<polygon fill="black" stroke="black" points="4540.89,-177.5 4530.89,-181 4540.89,-184.5 4540.89,-177.5"/>
</g>
<!-- ReviewService -->
<g id="node57" class="node">
<title>ReviewService</title>
<ellipse fill="#fdb462" stroke="black" cx="8437" cy="-104" rx="69.48" ry="18"/>
<text text-anchor="middle" x="8437" y="-99.8" font-family="Times,serif" font-size="14.00">ReviewService</text>
</g>
<!-- ReviewService&#45;&gt;AppModule -->
<g id="edge58" class="edge">
<title>ReviewService&#45;&gt;AppModule</title>
<path fill="none" stroke="black" d="M8437,-122.01C8437,-144.49 8437,-180 8437,-180 8437,-180 4540.67,-180 4540.67,-180"/>
<polygon fill="black" stroke="black" points="4540.67,-176.5 4530.67,-180 4540.67,-183.5 4540.67,-176.5"/>
</g>
<!-- UserService -->
<g id="node58" class="node">
<title>UserService</title>
<ellipse fill="#fdb462" stroke="black" cx="8291" cy="-104" rx="58.44" ry="18"/>
<text text-anchor="middle" x="8291" y="-99.8" font-family="Times,serif" font-size="14.00">UserService</text>
</g>
<!-- UserService&#45;&gt;AppModule -->
<g id="edge59" class="edge">
<title>UserService&#45;&gt;AppModule</title>
<path fill="none" stroke="black" d="M8291,-122.16C8291,-144.35 8291,-179 8291,-179 8291,-179 4540.72,-179 4540.72,-179"/>
<polygon fill="black" stroke="black" points="4540.72,-175.5 4530.72,-179 4540.72,-182.5 4540.72,-175.5"/>
</g>
</g>
</svg>
