<?xml version="1.0" encoding="UTF-8" standalone="no"?>
<!DOCTYPE svg PUBLIC "-//W3C//DTD SVG 1.1//EN"
 "http://www.w3.org/Graphics/SVG/1.1/DTD/svg11.dtd">
<!-- Generated by graphviz version 2.47.0 (20210316.0004)
 -->
<!-- Title: dependencies Pages: 1 -->
<svg width="5789pt" height="284pt"
 viewBox="0.00 0.00 5789.00 284.00" xmlns="http://www.w3.org/2000/svg" xmlns:xlink="http://www.w3.org/1999/xlink">
<g id="graph0" class="graph" transform="scale(1 1) rotate(0) translate(4 280)">
<title>dependencies</title>
<polygon fill="white" stroke="transparent" points="-4,4 -4,-280 5785,-280 5785,4 -4,4"/>
<text text-anchor="start" x="2869.51" y="-42.4" font-family="Times-12" font-weight="bold" font-size="14.00">Legend</text>
<polygon fill="#ffffb3" stroke="transparent" points="2656.5,-10 2656.5,-30 2676.5,-30 2676.5,-10 2656.5,-10"/>
<text text-anchor="start" x="2680.13" y="-15.4" font-family="Times-12" font-size="14.00"> &#160;Declarations</text>
<polygon fill="#8dd3c7" stroke="transparent" points="2769.5,-10 2769.5,-30 2789.5,-30 2789.5,-10 2769.5,-10"/>
<text text-anchor="start" x="2793.23" y="-15.4" font-family="Times-12" font-size="14.00"> &#160;Module</text>
<polygon fill="#80b1d3" stroke="transparent" points="2855.5,-10 2855.5,-30 2875.5,-30 2875.5,-10 2855.5,-10"/>
<text text-anchor="start" x="2879.28" y="-15.4" font-family="Times-12" font-size="14.00"> &#160;Bootstrap</text>
<polygon fill="#fdb462" stroke="transparent" points="2952.5,-10 2952.5,-30 2972.5,-30 2972.5,-10 2952.5,-10"/>
<text text-anchor="start" x="2976.17" y="-15.4" font-family="Times-12" font-size="14.00"> &#160;Providers</text>
<polygon fill="#fb8072" stroke="transparent" points="3048.5,-10 3048.5,-30 3068.5,-30 3068.5,-10 3048.5,-10"/>
<text text-anchor="start" x="3072.23" y="-15.4" font-family="Times-12" font-size="14.00"> &#160;Exports</text>
<g id="clust1" class="cluster">
<title>cluster_AppModule</title>
<polygon fill="none" stroke="black" stroke-dasharray="1,5" points="8,-70 8,-268 5773,-268 5773,-70 8,-70"/>
</g>
<g id="clust2" class="cluster">
<title>cluster_AppModule_declarations</title>
<polygon fill="none" stroke="black" points="1093,-78 1093,-130 5765,-130 5765,-78 1093,-78"/>
</g>
<g id="clust32" class="cluster">
<title>cluster_AppModule_imports</title>
<polygon fill="none" stroke="black" points="941,-78 941,-130 1085,-130 1085,-78 941,-78"/>
</g>
<g id="clust34" class="cluster">
<title>cluster_AppModule_bootstrap</title>
<polygon fill="none" stroke="black" points="2684,-208 2684,-260 2808,-260 2808,-208 2684,-208"/>
</g>
<g id="clust35" class="cluster">
<title>cluster_AppModule_providers</title>
<polygon fill="none" stroke="black" points="16,-78 16,-130 933,-130 933,-78 16,-78"/>
</g>
<!-- AddReviewComponent -->
<g id="node1" class="node">
<title>AddReviewComponent</title>
<polygon fill="#ffffb3" stroke="black" points="5757.2,-122 5608.8,-122 5608.8,-86 5757.2,-86 5757.2,-122"/>
<text text-anchor="middle" x="5683" y="-99.8" font-family="Times,serif" font-size="14.00">AddReviewComponent</text>
</g>
<!-- AppModule -->
<g id="node30" class="node">
<title>AppModule</title>
<polygon fill="#8dd3c7" stroke="black" points="2787.66,-187 2784.66,-191 2763.66,-191 2760.66,-187 2704.34,-187 2704.34,-151 2787.66,-151 2787.66,-187"/>
<text text-anchor="middle" x="2746" y="-164.8" font-family="Times,serif" font-size="14.00">AppModule</text>
</g>
<!-- AddReviewComponent&#45;&gt;AppModule -->
<g id="edge1" class="edge">
<title>AddReviewComponent&#45;&gt;AppModule</title>
<path fill="none" stroke="black" d="M5683,-122.2C5683,-146.36 5683,-186 5683,-186 5683,-186 2797.8,-186 2797.8,-186"/>
<polygon fill="black" stroke="black" points="2797.8,-182.5 2787.8,-186 2797.8,-189.5 2797.8,-182.5"/>
</g>
<!-- AddToCartComponent -->
<g id="node2" class="node">
<title>AddToCartComponent</title>
<polygon fill="#ffffb3" stroke="black" points="5590.59,-122 5445.41,-122 5445.41,-86 5590.59,-86 5590.59,-122"/>
<text text-anchor="middle" x="5518" y="-99.8" font-family="Times,serif" font-size="14.00">AddToCartComponent</text>
</g>
<!-- AddToCartComponent&#45;&gt;AppModule -->
<g id="edge2" class="edge">
<title>AddToCartComponent&#45;&gt;AppModule</title>
<path fill="none" stroke="black" d="M5518,-122.15C5518,-145.76 5518,-184 5518,-184 5518,-184 2797.88,-184 2797.88,-184"/>
<polygon fill="black" stroke="black" points="2797.88,-180.5 2787.88,-184 2797.88,-187.5 2797.88,-180.5"/>
</g>
<!-- AddbookComponent -->
<g id="node3" class="node">
<title>AddbookComponent</title>
<polygon fill="#ffffb3" stroke="black" points="5427.94,-122 5294.06,-122 5294.06,-86 5427.94,-86 5427.94,-122"/>
<text text-anchor="middle" x="5361" y="-99.8" font-family="Times,serif" font-size="14.00">AddbookComponent</text>
</g>
<!-- AddbookComponent&#45;&gt;AppModule -->
<g id="edge3" class="edge">
<title>AddbookComponent&#45;&gt;AppModule</title>
<path fill="none" stroke="black" d="M5361,-122.09C5361,-145.13 5361,-182 5361,-182 5361,-182 2797.87,-182 2797.87,-182"/>
<polygon fill="black" stroke="black" points="2797.87,-178.5 2787.87,-182 2797.87,-185.5 2797.87,-178.5"/>
</g>
<!-- AdminReturnProcessComponent -->
<g id="node4" class="node">
<title>AdminReturnProcessComponent</title>
<polygon fill="#ffffb3" stroke="black" points="5276.58,-122 5075.42,-122 5075.42,-86 5276.58,-86 5276.58,-122"/>
<text text-anchor="middle" x="5176" y="-99.8" font-family="Times,serif" font-size="14.00">AdminReturnProcessComponent</text>
</g>
<!-- AdminReturnProcessComponent&#45;&gt;AppModule -->
<g id="edge4" class="edge">
<title>AdminReturnProcessComponent&#45;&gt;AppModule</title>
<path fill="none" stroke="black" d="M5176,-122.01C5176,-144.49 5176,-180 5176,-180 5176,-180 2797.67,-180 2797.67,-180"/>
<polygon fill="black" stroke="black" points="2797.67,-176.5 2787.67,-180 2797.67,-183.5 2797.67,-176.5"/>
</g>
<!-- AllReviewsComponent -->
<g id="node5" class="node">
<title>AllReviewsComponent</title>
<polygon fill="#ffffb3" stroke="black" points="5057.93,-122 4910.07,-122 4910.07,-86 5057.93,-86 5057.93,-122"/>
<text text-anchor="middle" x="4984" y="-99.8" font-family="Times,serif" font-size="14.00">AllReviewsComponent</text>
</g>
<!-- AllReviewsComponent&#45;&gt;AppModule -->
<g id="edge5" class="edge">
<title>AllReviewsComponent&#45;&gt;AppModule</title>
<path fill="none" stroke="black" d="M4984,-122.29C4984,-144.21 4984,-178 4984,-178 4984,-178 2797.73,-178 2797.73,-178"/>
<polygon fill="black" stroke="black" points="2797.73,-174.5 2787.73,-178 2797.73,-181.5 2797.73,-174.5"/>
</g>
<!-- AppComponent -->
<g id="node6" class="node">
<title>AppComponent</title>
<polygon fill="#ffffb3" stroke="black" points="4892.94,-122 4787.06,-122 4787.06,-86 4892.94,-86 4892.94,-122"/>
<text text-anchor="middle" x="4840" y="-99.8" font-family="Times,serif" font-size="14.00">AppComponent</text>
</g>
<!-- AppComponent&#45;&gt;AppModule -->
<g id="edge6" class="edge">
<title>AppComponent&#45;&gt;AppModule</title>
<path fill="none" stroke="black" d="M4840,-122.17C4840,-143.5 4840,-176 4840,-176 4840,-176 2797.83,-176 2797.83,-176"/>
<polygon fill="black" stroke="black" points="2797.83,-172.5 2787.83,-176 2797.83,-179.5 2797.83,-172.5"/>
</g>
<!-- AverageRatingComponent -->
<g id="node7" class="node">
<title>AverageRatingComponent</title>
<polygon fill="#ffffb3" stroke="black" points="4769.08,-122 4602.92,-122 4602.92,-86 4769.08,-86 4769.08,-122"/>
<text text-anchor="middle" x="4686" y="-99.8" font-family="Times,serif" font-size="14.00">AverageRatingComponent</text>
</g>
<!-- AverageRatingComponent&#45;&gt;AppModule -->
<g id="edge7" class="edge">
<title>AverageRatingComponent&#45;&gt;AppModule</title>
<path fill="none" stroke="black" d="M4686,-122.03C4686,-142.77 4686,-174 4686,-174 4686,-174 2797.87,-174 2797.87,-174"/>
<polygon fill="black" stroke="black" points="2797.87,-170.5 2787.87,-174 2797.87,-177.5 2797.87,-170.5"/>
</g>
<!-- BookCarouselComponent -->
<g id="node8" class="node">
<title>BookCarouselComponent</title>
<polygon fill="#ffffb3" stroke="black" points="4584.93,-122 4423.07,-122 4423.07,-86 4584.93,-86 4584.93,-122"/>
<text text-anchor="middle" x="4504" y="-99.8" font-family="Times,serif" font-size="14.00">BookCarouselComponent</text>
</g>
<!-- BookCarouselComponent&#45;&gt;AppModule -->
<g id="edge8" class="edge">
<title>BookCarouselComponent&#45;&gt;AppModule</title>
<path fill="none" stroke="black" d="M4504,-122.22C4504,-142.37 4504,-172 4504,-172 4504,-172 2797.72,-172 2797.72,-172"/>
<polygon fill="black" stroke="black" points="2797.72,-168.5 2787.72,-172 2797.72,-175.5 2797.72,-168.5"/>
</g>
<!-- BookHeroComponent -->
<g id="node9" class="node">
<title>BookHeroComponent</title>
<polygon fill="#ffffb3" stroke="black" points="4404.65,-122 4265.35,-122 4265.35,-86 4404.65,-86 4404.65,-122"/>
<text text-anchor="middle" x="4335" y="-99.8" font-family="Times,serif" font-size="14.00">BookHeroComponent</text>
</g>
<!-- BookHeroComponent&#45;&gt;AppModule -->
<g id="edge9" class="edge">
<title>BookHeroComponent&#45;&gt;AppModule</title>
<path fill="none" stroke="black" d="M4335,-122.03C4335,-141.58 4335,-170 4335,-170 4335,-170 2797.69,-170 2797.69,-170"/>
<polygon fill="black" stroke="black" points="2797.69,-166.5 2787.69,-170 2797.69,-173.5 2797.69,-166.5"/>
</g>
<!-- BookdetailsComponent -->
<g id="node10" class="node">
<title>BookdetailsComponent</title>
<polygon fill="#ffffb3" stroke="black" points="4247.21,-122 4098.79,-122 4098.79,-86 4247.21,-86 4247.21,-122"/>
<text text-anchor="middle" x="4173" y="-99.8" font-family="Times,serif" font-size="14.00">BookdetailsComponent</text>
</g>
<!-- BookdetailsComponent&#45;&gt;AppModule -->
<g id="edge10" class="edge">
<title>BookdetailsComponent&#45;&gt;AppModule</title>
<path fill="none" stroke="black" d="M4173,-122.11C4173,-141.34 4173,-169 4173,-169 4173,-169 2797.93,-169 2797.93,-169"/>
<polygon fill="black" stroke="black" points="2797.93,-165.5 2787.93,-169 2797.93,-172.5 2797.93,-165.5"/>
</g>
<!-- CartComponent -->
<g id="node11" class="node">
<title>CartComponent</title>
<polygon fill="#ffffb3" stroke="black" points="4080.94,-122 3975.06,-122 3975.06,-86 4080.94,-86 4080.94,-122"/>
<text text-anchor="middle" x="4028" y="-99.8" font-family="Times,serif" font-size="14.00">CartComponent</text>
</g>
<!-- CartComponent&#45;&gt;AppModule -->
<g id="edge11" class="edge">
<title>CartComponent&#45;&gt;AppModule</title>
<path fill="none" stroke="black" d="M4028,-122.22C4028,-140.83 4028,-167 4028,-167 4028,-167 2797.93,-167 2797.93,-167"/>
<polygon fill="black" stroke="black" points="2797.93,-163.5 2787.93,-167 2797.93,-170.5 2797.93,-163.5"/>
</g>
<!-- FilterComponent -->
<g id="node12" class="node">
<title>FilterComponent</title>
<polygon fill="#ffffb3" stroke="black" points="3956.66,-122 3845.34,-122 3845.34,-86 3956.66,-86 3956.66,-122"/>
<text text-anchor="middle" x="3901" y="-99.8" font-family="Times,serif" font-size="14.00">FilterComponent</text>
</g>
<!-- FilterComponent&#45;&gt;AppModule -->
<g id="edge12" class="edge">
<title>FilterComponent&#45;&gt;AppModule</title>
<path fill="none" stroke="black" d="M3901,-122.3C3901,-140.27 3901,-165 3901,-165 3901,-165 2797.79,-165 2797.79,-165"/>
<polygon fill="black" stroke="black" points="2797.79,-161.5 2787.79,-165 2797.79,-168.5 2797.79,-161.5"/>
</g>
<!-- HomeComponent -->
<g id="node13" class="node">
<title>HomeComponent</title>
<polygon fill="#ffffb3" stroke="black" points="3826.55,-122 3711.45,-122 3711.45,-86 3826.55,-86 3826.55,-122"/>
<text text-anchor="middle" x="3769" y="-99.8" font-family="Times,serif" font-size="14.00">HomeComponent</text>
</g>
<!-- HomeComponent&#45;&gt;AppModule -->
<g id="edge13" class="edge">
<title>HomeComponent&#45;&gt;AppModule</title>
<path fill="none" stroke="black" d="M3769,-122.02C3769,-139.37 3769,-163 3769,-163 3769,-163 2797.69,-163 2797.69,-163"/>
<polygon fill="black" stroke="black" points="2797.69,-159.5 2787.69,-163 2797.69,-166.5 2797.69,-159.5"/>
</g>
<!-- LoginComponent -->
<g id="node14" class="node">
<title>LoginComponent</title>
<polygon fill="#ffffb3" stroke="black" points="3693.28,-122 3578.72,-122 3578.72,-86 3693.28,-86 3693.28,-122"/>
<text text-anchor="middle" x="3636" y="-99.8" font-family="Times,serif" font-size="14.00">LoginComponent</text>
</g>
<!-- LoginComponent&#45;&gt;AppModule -->
<g id="edge14" class="edge">
<title>LoginComponent&#45;&gt;AppModule</title>
<path fill="none" stroke="black" d="M3636,-122.04C3636,-138.73 3636,-161 3636,-161 3636,-161 2797.73,-161 2797.73,-161"/>
<polygon fill="black" stroke="black" points="2797.73,-157.5 2787.73,-161 2797.73,-164.5 2797.73,-157.5"/>
</g>
<!-- NavbarComponent -->
<g id="node15" class="node">
<title>NavbarComponent</title>
<polygon fill="#ffffb3" stroke="black" points="3560.03,-122 3437.97,-122 3437.97,-86 3560.03,-86 3560.03,-122"/>
<text text-anchor="middle" x="3499" y="-99.8" font-family="Times,serif" font-size="14.00">NavbarComponent</text>
</g>
<!-- NavbarComponent&#45;&gt;AppModule -->
<g id="edge15" class="edge">
<title>NavbarComponent&#45;&gt;AppModule</title>
<path fill="none" stroke="black" d="M3499,-122.01C3499,-138.05 3499,-159 3499,-159 3499,-159 2797.83,-159 2797.83,-159"/>
<polygon fill="black" stroke="black" points="2797.83,-155.5 2787.83,-159 2797.83,-162.5 2797.83,-155.5"/>
</g>
<!-- OrderDetailsComponent -->
<g id="node16" class="node">
<title>OrderDetailsComponent</title>
<polygon fill="#ffffb3" stroke="black" points="3419.63,-122 3266.37,-122 3266.37,-86 3419.63,-86 3419.63,-122"/>
<text text-anchor="middle" x="3343" y="-99.8" font-family="Times,serif" font-size="14.00">OrderDetailsComponent</text>
</g>
<!-- OrderDetailsComponent&#45;&gt;AppModule -->
<g id="edge16" class="edge">
<title>OrderDetailsComponent&#45;&gt;AppModule</title>
<path fill="none" stroke="black" d="M3343,-122.24C3343,-137.57 3343,-157 3343,-157 3343,-157 2797.98,-157 2797.98,-157"/>
<polygon fill="black" stroke="black" points="2797.98,-153.5 2787.98,-157 2797.98,-160.5 2797.98,-153.5"/>
</g>
<!-- OrderListComponent -->
<g id="node17" class="node">
<title>OrderListComponent</title>
<polygon fill="#ffffb3" stroke="black" points="3247.75,-122 3112.25,-122 3112.25,-86 3247.75,-86 3247.75,-122"/>
<text text-anchor="middle" x="3180" y="-99.8" font-family="Times,serif" font-size="14.00">OrderListComponent</text>
</g>
<!-- OrderListComponent&#45;&gt;AppModule -->
<g id="edge17" class="edge">
<title>OrderListComponent&#45;&gt;AppModule</title>
<path fill="none" stroke="black" d="M3180,-122.12C3180,-136.78 3180,-155 3180,-155 3180,-155 2798.01,-155 2798.01,-155"/>
<polygon fill="black" stroke="black" points="2798.01,-151.5 2788.01,-155 2798.01,-158.5 2798.01,-151.5"/>
</g>
<!-- OrderManagementComponent -->
<g id="node18" class="node">
<title>OrderManagementComponent</title>
<polygon fill="#ffffb3" stroke="black" points="3094.56,-122 2907.44,-122 2907.44,-86 3094.56,-86 3094.56,-122"/>
<text text-anchor="middle" x="3001" y="-99.8" font-family="Times,serif" font-size="14.00">OrderManagementComponent</text>
</g>
<!-- OrderManagementComponent&#45;&gt;AppModule -->
<g id="edge18" class="edge">
<title>OrderManagementComponent&#45;&gt;AppModule</title>
<path fill="none" stroke="black" d="M3001,-122.25C3001,-136.18 3001,-153 3001,-153 3001,-153 2797.82,-153 2797.82,-153"/>
<polygon fill="black" stroke="black" points="2797.82,-149.5 2787.82,-153 2797.82,-156.5 2797.82,-149.5"/>
</g>
<!-- PaymentComponent -->
<g id="node19" class="node">
<title>PaymentComponent</title>
<polygon fill="#ffffb3" stroke="black" points="2889.33,-122 2758.67,-122 2758.67,-86 2889.33,-86 2889.33,-122"/>
<text text-anchor="middle" x="2824" y="-99.8" font-family="Times,serif" font-size="14.00">PaymentComponent</text>
</g>
<!-- PaymentComponent&#45;&gt;AppModule -->
<g id="edge19" class="edge">
<title>PaymentComponent&#45;&gt;AppModule</title>
<path fill="none" stroke="black" d="M2773.33,-122.11C2773.33,-122.11 2773.33,-140.99 2773.33,-140.99"/>
<polygon fill="black" stroke="black" points="2769.83,-140.99 2773.33,-150.99 2776.83,-140.99 2769.83,-140.99"/>
</g>
<!-- PlaceOrderComponent -->
<g id="node20" class="node">
<title>PlaceOrderComponent</title>
<polygon fill="#ffffb3" stroke="black" points="2741.29,-122 2596.71,-122 2596.71,-86 2741.29,-86 2741.29,-122"/>
<text text-anchor="middle" x="2669" y="-99.8" font-family="Times,serif" font-size="14.00">PlaceOrderComponent</text>
</g>
<!-- PlaceOrderComponent&#45;&gt;AppModule -->
<g id="edge20" class="edge">
<title>PlaceOrderComponent&#45;&gt;AppModule</title>
<path fill="none" stroke="black" d="M2716.5,-122.11C2716.5,-122.11 2716.5,-140.99 2716.5,-140.99"/>
<polygon fill="black" stroke="black" points="2713,-140.99 2716.5,-150.99 2720,-140.99 2713,-140.99"/>
</g>
<!-- PlaceOrderComponent&#45;&gt;AppModule -->
<g id="edge21" class="edge">
<title>PlaceOrderComponent&#45;&gt;AppModule</title>
<path fill="none" stroke="black" d="M2728.82,-122.11C2728.82,-122.11 2728.82,-140.99 2728.82,-140.99"/>
<polygon fill="black" stroke="black" points="2725.32,-140.99 2728.82,-150.99 2732.32,-140.99 2725.32,-140.99"/>
</g>
<!-- ReviewComponent -->
<g id="node21" class="node">
<title>ReviewComponent</title>
<polygon fill="#ffffb3" stroke="black" points="2579.1,-122 2454.9,-122 2454.9,-86 2579.1,-86 2579.1,-122"/>
<text text-anchor="middle" x="2517" y="-99.8" font-family="Times,serif" font-size="14.00">ReviewComponent</text>
</g>
<!-- ReviewComponent&#45;&gt;AppModule -->
<g id="edge22" class="edge">
<title>ReviewComponent&#45;&gt;AppModule</title>
<path fill="none" stroke="black" d="M2517,-122.25C2517,-136.18 2517,-153 2517,-153 2517,-153 2694.26,-153 2694.26,-153"/>
<polygon fill="black" stroke="black" points="2694.26,-156.5 2704.26,-153 2694.26,-149.5 2694.26,-156.5"/>
</g>
<!-- ReviewsByBookIdComponent -->
<g id="node22" class="node">
<title>ReviewsByBookIdComponent</title>
<polygon fill="#ffffb3" stroke="black" points="2436.87,-122 2249.13,-122 2249.13,-86 2436.87,-86 2436.87,-122"/>
<text text-anchor="middle" x="2343" y="-99.8" font-family="Times,serif" font-size="14.00">ReviewsByBookIdComponent</text>
</g>
<!-- ReviewsByBookIdComponent&#45;&gt;AppModule -->
<g id="edge23" class="edge">
<title>ReviewsByBookIdComponent&#45;&gt;AppModule</title>
<path fill="none" stroke="black" d="M2343,-122.12C2343,-136.78 2343,-155 2343,-155 2343,-155 2694.01,-155 2694.01,-155"/>
<polygon fill="black" stroke="black" points="2694.01,-158.5 2704.01,-155 2694.01,-151.5 2694.01,-158.5"/>
</g>
<!-- SearchtitleComponent -->
<g id="node23" class="node">
<title>SearchtitleComponent</title>
<polygon fill="#ffffb3" stroke="black" points="2230.7,-122 2089.3,-122 2089.3,-86 2230.7,-86 2230.7,-122"/>
<text text-anchor="middle" x="2160" y="-99.8" font-family="Times,serif" font-size="14.00">SearchtitleComponent</text>
</g>
<!-- SearchtitleComponent&#45;&gt;AppModule -->
<g id="edge24" class="edge">
<title>SearchtitleComponent&#45;&gt;AppModule</title>
<path fill="none" stroke="black" d="M2160,-122.24C2160,-137.57 2160,-157 2160,-157 2160,-157 2694.33,-157 2694.33,-157"/>
<polygon fill="black" stroke="black" points="2694.33,-160.5 2704.33,-157 2694.33,-153.5 2694.33,-160.5"/>
</g>
<!-- SignupComponent -->
<g id="node24" class="node">
<title>SignupComponent</title>
<polygon fill="#ffffb3" stroke="black" points="2071.51,-122 1950.49,-122 1950.49,-86 2071.51,-86 2071.51,-122"/>
<text text-anchor="middle" x="2011" y="-99.8" font-family="Times,serif" font-size="14.00">SignupComponent</text>
</g>
<!-- SignupComponent&#45;&gt;AppModule -->
<g id="edge25" class="edge">
<title>SignupComponent&#45;&gt;AppModule</title>
<path fill="none" stroke="black" d="M2011,-122.01C2011,-138.05 2011,-159 2011,-159 2011,-159 2694.11,-159 2694.11,-159"/>
<polygon fill="black" stroke="black" points="2694.11,-162.5 2704.11,-159 2694.11,-155.5 2694.11,-162.5"/>
</g>
<!-- StarsComponent -->
<g id="node25" class="node">
<title>StarsComponent</title>
<polygon fill="#ffffb3" stroke="black" points="1932.83,-122 1823.17,-122 1823.17,-86 1932.83,-86 1932.83,-122"/>
<text text-anchor="middle" x="1878" y="-99.8" font-family="Times,serif" font-size="14.00">StarsComponent</text>
</g>
<!-- StarsComponent&#45;&gt;AppModule -->
<g id="edge26" class="edge">
<title>StarsComponent&#45;&gt;AppModule</title>
<path fill="none" stroke="black" d="M1878,-122.04C1878,-138.73 1878,-161 1878,-161 1878,-161 2694.13,-161 2694.13,-161"/>
<polygon fill="black" stroke="black" points="2694.13,-164.5 2704.13,-161 2694.13,-157.5 2694.13,-164.5"/>
</g>
<!-- UpdateTrackingComponent -->
<g id="node26" class="node">
<title>UpdateTrackingComponent</title>
<polygon fill="#ffffb3" stroke="black" points="1805.29,-122 1632.71,-122 1632.71,-86 1805.29,-86 1805.29,-122"/>
<text text-anchor="middle" x="1719" y="-99.8" font-family="Times,serif" font-size="14.00">UpdateTrackingComponent</text>
</g>
<!-- UpdateTrackingComponent&#45;&gt;AppModule -->
<g id="edge27" class="edge">
<title>UpdateTrackingComponent&#45;&gt;AppModule</title>
<path fill="none" stroke="black" d="M1719,-122.02C1719,-139.37 1719,-163 1719,-163 1719,-163 2694.15,-163 2694.15,-163"/>
<polygon fill="black" stroke="black" points="2694.15,-166.5 2704.15,-163 2694.15,-159.5 2694.15,-166.5"/>
</g>
<!-- UpdatebookComponent -->
<g id="node27" class="node">
<title>UpdatebookComponent</title>
<polygon fill="#ffffb3" stroke="black" points="1614.76,-122 1465.24,-122 1465.24,-86 1614.76,-86 1614.76,-122"/>
<text text-anchor="middle" x="1540" y="-99.8" font-family="Times,serif" font-size="14.00">UpdatebookComponent</text>
</g>
<!-- UpdatebookComponent&#45;&gt;AppModule -->
<g id="edge28" class="edge">
<title>UpdatebookComponent&#45;&gt;AppModule</title>
<path fill="none" stroke="black" d="M1540,-122.3C1540,-140.27 1540,-165 1540,-165 1540,-165 2694.14,-165 2694.14,-165"/>
<polygon fill="black" stroke="black" points="2694.14,-168.5 2704.14,-165 2694.14,-161.5 2694.14,-168.5"/>
</g>
<!-- ViewAllReviewsComponent -->
<g id="node28" class="node">
<title>ViewAllReviewsComponent</title>
<polygon fill="#ffffb3" stroke="black" points="1446.75,-122 1269.25,-122 1269.25,-86 1446.75,-86 1446.75,-122"/>
<text text-anchor="middle" x="1358" y="-99.8" font-family="Times,serif" font-size="14.00">ViewAllReviewsComponent</text>
</g>
<!-- ViewAllReviewsComponent&#45;&gt;AppModule -->
<g id="edge29" class="edge">
<title>ViewAllReviewsComponent&#45;&gt;AppModule</title>
<path fill="none" stroke="black" d="M1358,-122.22C1358,-140.83 1358,-167 1358,-167 1358,-167 2694.08,-167 2694.08,-167"/>
<polygon fill="black" stroke="black" points="2694.08,-170.5 2704.08,-167 2694.08,-163.5 2694.08,-170.5"/>
</g>
<!-- ViewbookidComponent -->
<g id="node29" class="node">
<title>ViewbookidComponent</title>
<polygon fill="#ffffb3" stroke="black" points="1251.04,-122 1100.96,-122 1100.96,-86 1251.04,-86 1251.04,-122"/>
<text text-anchor="middle" x="1176" y="-99.8" font-family="Times,serif" font-size="14.00">ViewbookidComponent</text>
</g>
<!-- ViewbookidComponent&#45;&gt;AppModule -->
<g id="edge30" class="edge">
<title>ViewbookidComponent&#45;&gt;AppModule</title>
<path fill="none" stroke="black" d="M1201.09,-122.11C1201.09,-141.34 1201.09,-169 1201.09,-169 1201.09,-169 2694.28,-169 2694.28,-169"/>
<polygon fill="black" stroke="black" points="2694.28,-172.5 2704.28,-169 2694.28,-165.5 2694.28,-172.5"/>
</g>
<!-- ViewbookidComponent&#45;&gt;AppModule -->
<g id="edge31" class="edge">
<title>ViewbookidComponent&#45;&gt;AppModule</title>
<path fill="none" stroke="black" d="M1150.91,-122.31C1150.91,-142.15 1150.91,-171 1150.91,-171 1150.91,-171 2694.16,-171 2694.16,-171"/>
<polygon fill="black" stroke="black" points="2694.16,-174.5 2704.16,-171 2694.16,-167.5 2694.16,-174.5"/>
</g>
<!-- AppComponent  -->
<g id="node32" class="node">
<title>AppComponent </title>
<polygon fill="#80b1d3" stroke="black" points="2800.44,-252 2691.56,-252 2691.56,-216 2800.44,-216 2800.44,-252"/>
<text text-anchor="middle" x="2746" y="-229.8" font-family="Times,serif" font-size="14.00">AppComponent </text>
</g>
<!-- AppModule&#45;&gt;AppComponent  -->
<g id="edge33" class="edge">
<title>AppModule&#45;&gt;AppComponent </title>
<path fill="none" stroke="black" stroke-dasharray="1,5" d="M2746,-187.11C2746,-187.11 2746,-205.99 2746,-205.99"/>
<polygon fill="black" stroke="black" points="2742.5,-205.99 2746,-215.99 2749.5,-205.99 2742.5,-205.99"/>
</g>
<!-- AppRoutingModule -->
<g id="node31" class="node">
<title>AppRoutingModule</title>
<polygon fill="#8dd3c7" stroke="black" points="1077.27,-122 1074.27,-126 1053.27,-126 1050.27,-122 948.73,-122 948.73,-86 1077.27,-86 1077.27,-122"/>
<text text-anchor="middle" x="1013" y="-99.8" font-family="Times,serif" font-size="14.00">AppRoutingModule</text>
</g>
<!-- AppRoutingModule&#45;&gt;AppModule -->
<g id="edge32" class="edge">
<title>AppRoutingModule&#45;&gt;AppModule</title>
<path fill="none" stroke="black" d="M1013,-122.13C1013,-142.57 1013,-173 1013,-173 1013,-173 2694.02,-173 2694.02,-173"/>
<polygon fill="black" stroke="black" points="2694.02,-176.5 2704.02,-173 2694.02,-169.5 2694.02,-176.5"/>
</g>
<!-- BookInfoService -->
<g id="node33" class="node">
<title>BookInfoService</title>
<ellipse fill="#fdb462" stroke="black" cx="848" cy="-104" rx="77.01" ry="18"/>
<text text-anchor="middle" x="848" y="-99.8" font-family="Times,serif" font-size="14.00">BookInfoService</text>
</g>
<!-- BookInfoService&#45;&gt;AppModule -->
<g id="edge34" class="edge">
<title>BookInfoService&#45;&gt;AppModule</title>
<path fill="none" stroke="black" d="M848,-122.28C848,-143.32 848,-175 848,-175 848,-175 2694.15,-175 2694.15,-175"/>
<polygon fill="black" stroke="black" points="2694.15,-178.5 2704.15,-175 2694.15,-171.5 2694.15,-178.5"/>
</g>
<!-- BookService -->
<g id="node34" class="node">
<title>BookService</title>
<ellipse fill="#fdb462" stroke="black" cx="692" cy="-104" rx="60.84" ry="18"/>
<text text-anchor="middle" x="692" y="-99.8" font-family="Times,serif" font-size="14.00">BookService</text>
</g>
<!-- BookService&#45;&gt;AppModule -->
<g id="edge35" class="edge">
<title>BookService&#45;&gt;AppModule</title>
<path fill="none" stroke="black" d="M692,-122.04C692,-143.66 692,-177 692,-177 692,-177 2694.04,-177 2694.04,-177"/>
<polygon fill="black" stroke="black" points="2694.04,-180.5 2704.04,-177 2694.04,-173.5 2694.04,-180.5"/>
</g>
<!-- InventoryService -->
<g id="node35" class="node">
<title>InventoryService</title>
<ellipse fill="#fdb462" stroke="black" cx="536" cy="-104" rx="77.57" ry="18"/>
<text text-anchor="middle" x="536" y="-99.8" font-family="Times,serif" font-size="14.00">InventoryService</text>
</g>
<!-- InventoryService&#45;&gt;AppModule -->
<g id="edge36" class="edge">
<title>InventoryService&#45;&gt;AppModule</title>
<path fill="none" stroke="black" d="M536,-122.16C536,-144.35 536,-179 536,-179 536,-179 2694.31,-179 2694.31,-179"/>
<polygon fill="black" stroke="black" points="2694.31,-182.5 2704.31,-179 2694.31,-175.5 2694.31,-182.5"/>
</g>
<!-- OrderService -->
<g id="node36" class="node">
<title>OrderService</title>
<ellipse fill="#fdb462" stroke="black" cx="378" cy="-104" rx="62.52" ry="18"/>
<text text-anchor="middle" x="378" y="-99.8" font-family="Times,serif" font-size="14.00">OrderService</text>
</g>
<!-- OrderService&#45;&gt;AppModule -->
<g id="edge37" class="edge">
<title>OrderService&#45;&gt;AppModule</title>
<path fill="none" stroke="black" d="M378,-122.25C378,-145.02 378,-181 378,-181 378,-181 2694.15,-181 2694.15,-181"/>
<polygon fill="black" stroke="black" points="2694.15,-184.5 2704.15,-181 2694.15,-177.5 2694.15,-184.5"/>
</g>
<!-- ReviewService -->
<g id="node37" class="node">
<title>ReviewService</title>
<ellipse fill="#fdb462" stroke="black" cx="228" cy="-104" rx="69.48" ry="18"/>
<text text-anchor="middle" x="228" y="-99.8" font-family="Times,serif" font-size="14.00">ReviewService</text>
</g>
<!-- ReviewService&#45;&gt;AppModule -->
<g id="edge38" class="edge">
<title>ReviewService&#45;&gt;AppModule</title>
<path fill="none" stroke="black" d="M228,-122.32C228,-145.66 228,-183 228,-183 228,-183 2694.14,-183 2694.14,-183"/>
<polygon fill="black" stroke="black" points="2694.14,-186.5 2704.14,-183 2694.14,-179.5 2694.14,-186.5"/>
</g>
<!-- UserService -->
<g id="node38" class="node">
<title>UserService</title>
<ellipse fill="#fdb462" stroke="black" cx="82" cy="-104" rx="58.44" ry="18"/>
<text text-anchor="middle" x="82" y="-99.8" font-family="Times,serif" font-size="14.00">UserService</text>
</g>
<!-- UserService&#45;&gt;AppModule -->
<g id="edge39" class="edge">
<title>UserService&#45;&gt;AppModule</title>
<path fill="none" stroke="black" d="M82,-122.38C82,-146.28 82,-185 82,-185 82,-185 2694.15,-185 2694.15,-185"/>
<polygon fill="black" stroke="black" points="2694.15,-188.5 2704.15,-185 2694.15,-181.5 2694.15,-188.5"/>
</g>
</g>
</svg>
