<?xml version="1.0" encoding="UTF-8" standalone="no"?>
<!DOCTYPE svg PUBLIC "-//W3C//DTD SVG 1.1//EN"
 "http://www.w3.org/Graphics/SVG/1.1/DTD/svg11.dtd">
<!-- Generated by graphviz version 2.47.0 (20210316.0004)
 -->
<!-- Title: dependencies Pages: 1 -->
<svg width="9330pt" height="284pt"
 viewBox="0.00 0.00 9330.00 284.00" xmlns="http://www.w3.org/2000/svg" xmlns:xlink="http://www.w3.org/1999/xlink">
<g id="graph0" class="graph" transform="scale(1 1) rotate(0) translate(4 280)">
<title>dependencies</title>
<polygon fill="white" stroke="transparent" points="-4,4 -4,-280 9326,-280 9326,4 -4,4"/>
<text text-anchor="start" x="4640.01" y="-42.4" font-family="Times-12" font-weight="bold" font-size="14.00">Legend</text>
<polygon fill="#ffffb3" stroke="transparent" points="4427,-10 4427,-30 4447,-30 4447,-10 4427,-10"/>
<text text-anchor="start" x="4450.63" y="-15.4" font-family="Times-12" font-size="14.00"> &#160;Declarations</text>
<polygon fill="#8dd3c7" stroke="transparent" points="4540,-10 4540,-30 4560,-30 4560,-10 4540,-10"/>
<text text-anchor="start" x="4563.73" y="-15.4" font-family="Times-12" font-size="14.00"> &#160;Module</text>
<polygon fill="#80b1d3" stroke="transparent" points="4626,-10 4626,-30 4646,-30 4646,-10 4626,-10"/>
<text text-anchor="start" x="4649.78" y="-15.4" font-family="Times-12" font-size="14.00"> &#160;Bootstrap</text>
<polygon fill="#fdb462" stroke="transparent" points="4723,-10 4723,-30 4743,-30 4743,-10 4723,-10"/>
<text text-anchor="start" x="4746.67" y="-15.4" font-family="Times-12" font-size="14.00"> &#160;Providers</text>
<polygon fill="#fb8072" stroke="transparent" points="4819,-10 4819,-30 4839,-30 4839,-10 4819,-10"/>
<text text-anchor="start" x="4842.73" y="-15.4" font-family="Times-12" font-size="14.00"> &#160;Exports</text>
<g id="clust1" class="cluster">
<title>cluster_AppModule</title>
<polygon fill="none" stroke="black" stroke-dasharray="1,5" points="8,-70 8,-268 9314,-268 9314,-70 8,-70"/>
</g>
<g id="clust2" class="cluster">
<title>cluster_AppModule_declarations</title>
<polygon fill="none" stroke="black" points="1365,-78 1365,-130 9306,-130 9306,-78 1365,-78"/>
</g>
<g id="clust50" class="cluster">
<title>cluster_AppModule_imports</title>
<polygon fill="none" stroke="black" points="1105,-78 1105,-130 1357,-130 1357,-78 1105,-78"/>
</g>
<g id="clust52" class="cluster">
<title>cluster_AppModule_bootstrap</title>
<polygon fill="none" stroke="black" points="4423,-208 4423,-260 4547,-260 4547,-208 4423,-208"/>
</g>
<g id="clust53" class="cluster">
<title>cluster_AppModule_providers</title>
<polygon fill="none" stroke="black" points="16,-78 16,-130 1097,-130 1097,-78 16,-78"/>
</g>
<!-- AddToCartComponent -->
<g id="node1" class="node">
<title>AddToCartComponent</title>
<polygon fill="#ffffb3" stroke="black" points="9297.59,-122 9152.41,-122 9152.41,-86 9297.59,-86 9297.59,-122"/>
<text text-anchor="middle" x="9225" y="-99.8" font-family="Times,serif" font-size="14.00">AddToCartComponent</text>
</g>
<!-- AppModule -->
<g id="node48" class="node">
<title>AppModule</title>
<polygon fill="#8dd3c7" stroke="black" points="4526.66,-187 4523.66,-191 4502.66,-191 4499.66,-187 4443.34,-187 4443.34,-151 4526.66,-151 4526.66,-187"/>
<text text-anchor="middle" x="4485" y="-164.8" font-family="Times,serif" font-size="14.00">AppModule</text>
</g>
<!-- AddToCartComponent&#45;&gt;AppModule -->
<g id="edge1" class="edge">
<title>AddToCartComponent&#45;&gt;AppModule</title>
<path fill="none" stroke="black" d="M9225,-122.2C9225,-146.36 9225,-186 9225,-186 9225,-186 4536.7,-186 4536.7,-186"/>
<polygon fill="black" stroke="black" points="4536.7,-182.5 4526.7,-186 4536.7,-189.5 4536.7,-182.5"/>
</g>
<!-- AddUpdateReviewComponent -->
<g id="node2" class="node">
<title>AddUpdateReviewComponent</title>
<polygon fill="#ffffb3" stroke="black" points="9134.13,-122 8945.87,-122 8945.87,-86 9134.13,-86 9134.13,-122"/>
<text text-anchor="middle" x="9040" y="-99.8" font-family="Times,serif" font-size="14.00">AddUpdateReviewComponent</text>
</g>
<!-- AddUpdateReviewComponent&#45;&gt;AppModule -->
<g id="edge2" class="edge">
<title>AddUpdateReviewComponent&#45;&gt;AppModule</title>
<path fill="none" stroke="black" d="M9040,-122.38C9040,-146.28 9040,-185 9040,-185 9040,-185 4536.83,-185 4536.83,-185"/>
<polygon fill="black" stroke="black" points="4536.83,-181.5 4526.83,-185 4536.83,-188.5 4536.83,-181.5"/>
</g>
<!-- AddbookComponent -->
<g id="node3" class="node">
<title>AddbookComponent</title>
<polygon fill="#ffffb3" stroke="black" points="8927.94,-122 8794.06,-122 8794.06,-86 8927.94,-86 8927.94,-122"/>
<text text-anchor="middle" x="8861" y="-99.8" font-family="Times,serif" font-size="14.00">AddbookComponent</text>
</g>
<!-- AddbookComponent&#45;&gt;AppModule -->
<g id="edge3" class="edge">
<title>AddbookComponent&#45;&gt;AppModule</title>
<path fill="none" stroke="black" d="M8861,-122.15C8861,-145.76 8861,-184 8861,-184 8861,-184 4536.91,-184 4536.91,-184"/>
<polygon fill="black" stroke="black" points="4536.91,-180.5 4526.91,-184 4536.91,-187.5 4536.91,-180.5"/>
</g>
<!-- AdminHomeComponent -->
<g id="node4" class="node">
<title>AdminHomeComponent</title>
<polygon fill="#ffffb3" stroke="black" points="8776.43,-122 8621.57,-122 8621.57,-86 8776.43,-86 8776.43,-122"/>
<text text-anchor="middle" x="8699" y="-99.8" font-family="Times,serif" font-size="14.00">AdminHomeComponent</text>
</g>
<!-- AdminHomeComponent&#45;&gt;AppModule -->
<g id="edge4" class="edge">
<title>AdminHomeComponent&#45;&gt;AppModule</title>
<path fill="none" stroke="black" d="M8699,-122.32C8699,-145.66 8699,-183 8699,-183 8699,-183 4536.71,-183 4536.71,-183"/>
<polygon fill="black" stroke="black" points="4536.71,-179.5 4526.71,-183 4536.71,-186.5 4536.71,-179.5"/>
</g>
<!-- AdminReturnProcessComponent -->
<g id="node5" class="node">
<title>AdminReturnProcessComponent</title>
<polygon fill="#ffffb3" stroke="black" points="8603.58,-122 8402.42,-122 8402.42,-86 8603.58,-86 8603.58,-122"/>
<text text-anchor="middle" x="8503" y="-99.8" font-family="Times,serif" font-size="14.00">AdminReturnProcessComponent</text>
</g>
<!-- AdminReturnProcessComponent&#45;&gt;AppModule -->
<g id="edge5" class="edge">
<title>AdminReturnProcessComponent&#45;&gt;AppModule</title>
<path fill="none" stroke="black" d="M8503,-122.25C8503,-145.02 8503,-181 8503,-181 8503,-181 4536.74,-181 4536.74,-181"/>
<polygon fill="black" stroke="black" points="4536.74,-177.5 4526.74,-181 4536.74,-184.5 4536.74,-177.5"/>
</g>
<!-- AllReviewsComponent -->
<g id="node6" class="node">
<title>AllReviewsComponent</title>
<polygon fill="#ffffb3" stroke="black" points="8384.93,-122 8237.07,-122 8237.07,-86 8384.93,-86 8384.93,-122"/>
<text text-anchor="middle" x="8311" y="-99.8" font-family="Times,serif" font-size="14.00">AllReviewsComponent</text>
</g>
<!-- AllReviewsComponent&#45;&gt;AppModule -->
<g id="edge6" class="edge">
<title>AllReviewsComponent&#45;&gt;AppModule</title>
<path fill="none" stroke="black" d="M8311,-122.01C8311,-144.49 8311,-180 8311,-180 8311,-180 4536.66,-180 4536.66,-180"/>
<polygon fill="black" stroke="black" points="4536.66,-176.5 4526.66,-180 4536.66,-183.5 4536.66,-176.5"/>
</g>
<!-- AllorderstatusComponent -->
<g id="node7" class="node">
<title>AllorderstatusComponent</title>
<polygon fill="#ffffb3" stroke="black" points="8219.14,-122 8058.86,-122 8058.86,-86 8219.14,-86 8219.14,-122"/>
<text text-anchor="middle" x="8139" y="-99.8" font-family="Times,serif" font-size="14.00">AllorderstatusComponent</text>
</g>
<!-- AllorderstatusComponent&#45;&gt;AppModule -->
<g id="edge7" class="edge">
<title>AllorderstatusComponent&#45;&gt;AppModule</title>
<path fill="none" stroke="black" d="M8139,-122.16C8139,-144.35 8139,-179 8139,-179 8139,-179 4536.67,-179 4536.67,-179"/>
<polygon fill="black" stroke="black" points="4536.67,-175.5 4526.67,-179 4536.67,-182.5 4536.67,-175.5"/>
</g>
<!-- AppComponent -->
<g id="node8" class="node">
<title>AppComponent</title>
<polygon fill="#ffffb3" stroke="black" points="8040.94,-122 7935.06,-122 7935.06,-86 8040.94,-86 8040.94,-122"/>
<text text-anchor="middle" x="7988" y="-99.8" font-family="Times,serif" font-size="14.00">AppComponent</text>
</g>
<!-- AppComponent&#45;&gt;AppModule -->
<g id="edge8" class="edge">
<title>AppComponent&#45;&gt;AppModule</title>
<path fill="none" stroke="black" d="M7988,-122.29C7988,-144.21 7988,-178 7988,-178 7988,-178 4536.78,-178 4536.78,-178"/>
<polygon fill="black" stroke="black" points="4536.78,-174.5 4526.78,-178 4536.78,-181.5 4536.78,-174.5"/>
</g>
<!-- AverageRatingComponent -->
<g id="node9" class="node">
<title>AverageRatingComponent</title>
<polygon fill="#ffffb3" stroke="black" points="7917.08,-122 7750.92,-122 7750.92,-86 7917.08,-86 7917.08,-122"/>
<text text-anchor="middle" x="7834" y="-99.8" font-family="Times,serif" font-size="14.00">AverageRatingComponent</text>
</g>
<!-- AverageRatingComponent&#45;&gt;AppModule -->
<g id="edge9" class="edge">
<title>AverageRatingComponent&#45;&gt;AppModule</title>
<path fill="none" stroke="black" d="M7834,-122.17C7834,-143.5 7834,-176 7834,-176 7834,-176 4536.74,-176 4536.74,-176"/>
<polygon fill="black" stroke="black" points="4536.74,-172.5 4526.74,-176 4536.74,-179.5 4536.74,-172.5"/>
</g>
<!-- BookCarouselComponent -->
<g id="node10" class="node">
<title>BookCarouselComponent</title>
<polygon fill="#ffffb3" stroke="black" points="7732.93,-122 7571.07,-122 7571.07,-86 7732.93,-86 7732.93,-122"/>
<text text-anchor="middle" x="7652" y="-99.8" font-family="Times,serif" font-size="14.00">BookCarouselComponent</text>
</g>
<!-- BookCarouselComponent&#45;&gt;AppModule -->
<g id="edge10" class="edge">
<title>BookCarouselComponent&#45;&gt;AppModule</title>
<path fill="none" stroke="black" d="M7652,-122.28C7652,-143.32 7652,-175 7652,-175 7652,-175 4536.79,-175 4536.79,-175"/>
<polygon fill="black" stroke="black" points="4536.79,-171.5 4526.79,-175 4536.79,-178.5 4536.79,-171.5"/>
</g>
<!-- BookDealComponent -->
<g id="node11" class="node">
<title>BookDealComponent</title>
<polygon fill="#ffffb3" stroke="black" points="7553.1,-122 7414.9,-122 7414.9,-86 7553.1,-86 7553.1,-122"/>
<text text-anchor="middle" x="7484" y="-99.8" font-family="Times,serif" font-size="14.00">BookDealComponent</text>
</g>
<!-- BookDealComponent&#45;&gt;AppModule -->
<g id="edge11" class="edge">
<title>BookDealComponent&#45;&gt;AppModule</title>
<path fill="none" stroke="black" d="M7484,-122.03C7484,-142.77 7484,-174 7484,-174 7484,-174 4536.82,-174 4536.82,-174"/>
<polygon fill="black" stroke="black" points="4536.82,-170.5 4526.82,-174 4536.82,-177.5 4536.82,-170.5"/>
</g>
<!-- BookHeroComponent -->
<g id="node12" class="node">
<title>BookHeroComponent</title>
<polygon fill="#ffffb3" stroke="black" points="7396.65,-122 7257.35,-122 7257.35,-86 7396.65,-86 7396.65,-122"/>
<text text-anchor="middle" x="7327" y="-99.8" font-family="Times,serif" font-size="14.00">BookHeroComponent</text>
</g>
<!-- BookHeroComponent&#45;&gt;AppModule -->
<g id="edge12" class="edge">
<title>BookHeroComponent&#45;&gt;AppModule</title>
<path fill="none" stroke="black" d="M7327,-122.13C7327,-142.57 7327,-173 7327,-173 7327,-173 4536.82,-173 4536.82,-173"/>
<polygon fill="black" stroke="black" points="4536.82,-169.5 4526.82,-173 4536.82,-176.5 4536.82,-169.5"/>
</g>
<!-- BookdetailsComponent -->
<g id="node13" class="node">
<title>BookdetailsComponent</title>
<polygon fill="#ffffb3" stroke="black" points="7239.21,-122 7090.79,-122 7090.79,-86 7239.21,-86 7239.21,-122"/>
<text text-anchor="middle" x="7165" y="-99.8" font-family="Times,serif" font-size="14.00">BookdetailsComponent</text>
</g>
<!-- BookdetailsComponent&#45;&gt;AppModule -->
<g id="edge13" class="edge">
<title>BookdetailsComponent&#45;&gt;AppModule</title>
<path fill="none" stroke="black" d="M7165,-122.31C7165,-142.15 7165,-171 7165,-171 7165,-171 4536.83,-171 4536.83,-171"/>
<polygon fill="black" stroke="black" points="4536.83,-167.5 4526.83,-171 4536.83,-174.5 4536.83,-167.5"/>
</g>
<!-- CartComponent -->
<g id="node14" class="node">
<title>CartComponent</title>
<polygon fill="#ffffb3" stroke="black" points="7072.94,-122 6967.06,-122 6967.06,-86 7072.94,-86 7072.94,-122"/>
<text text-anchor="middle" x="7020" y="-99.8" font-family="Times,serif" font-size="14.00">CartComponent</text>
</g>
<!-- CartComponent&#45;&gt;AppModule -->
<g id="edge14" class="edge">
<title>CartComponent&#45;&gt;AppModule</title>
<path fill="none" stroke="black" d="M7020,-122.03C7020,-141.58 7020,-170 7020,-170 7020,-170 4536.88,-170 4536.88,-170"/>
<polygon fill="black" stroke="black" points="4536.88,-166.5 4526.88,-170 4536.88,-173.5 4536.88,-166.5"/>
</g>
<!-- CategorybooksComponent -->
<g id="node15" class="node">
<title>CategorybooksComponent</title>
<polygon fill="#ffffb3" stroke="black" points="6949.09,-122 6782.91,-122 6782.91,-86 6949.09,-86 6949.09,-122"/>
<text text-anchor="middle" x="6866" y="-99.8" font-family="Times,serif" font-size="14.00">CategorybooksComponent</text>
</g>
<!-- CategorybooksComponent&#45;&gt;AppModule -->
<g id="edge15" class="edge">
<title>CategorybooksComponent&#45;&gt;AppModule</title>
<path fill="none" stroke="black" d="M6866,-122.11C6866,-141.34 6866,-169 6866,-169 6866,-169 4536.83,-169 4536.83,-169"/>
<polygon fill="black" stroke="black" points="4536.83,-165.5 4526.83,-169 4536.83,-172.5 4536.83,-165.5"/>
</g>
<!-- CategorybookslistComponent -->
<g id="node16" class="node">
<title>CategorybookslistComponent</title>
<polygon fill="#ffffb3" stroke="black" points="6764.71,-122 6581.29,-122 6581.29,-86 6764.71,-86 6764.71,-122"/>
<text text-anchor="middle" x="6673" y="-99.8" font-family="Times,serif" font-size="14.00">CategorybookslistComponent</text>
</g>
<!-- CategorybookslistComponent&#45;&gt;AppModule -->
<g id="edge16" class="edge">
<title>CategorybookslistComponent&#45;&gt;AppModule</title>
<path fill="none" stroke="black" d="M6673,-122.17C6673,-141.09 6673,-168 6673,-168 6673,-168 4536.75,-168 4536.75,-168"/>
<polygon fill="black" stroke="black" points="4536.75,-164.5 4526.75,-168 4536.75,-171.5 4536.75,-164.5"/>
</g>
<!-- DealOfTheDayComponent -->
<g id="node17" class="node">
<title>DealOfTheDayComponent</title>
<polygon fill="#ffffb3" stroke="black" points="6563.61,-122 6396.39,-122 6396.39,-86 6563.61,-86 6563.61,-122"/>
<text text-anchor="middle" x="6480" y="-99.8" font-family="Times,serif" font-size="14.00">DealOfTheDayComponent</text>
</g>
<!-- DealOfTheDayComponent&#45;&gt;AppModule -->
<g id="edge17" class="edge">
<title>DealOfTheDayComponent&#45;&gt;AppModule</title>
<path fill="none" stroke="black" d="M6480,-122.27C6480,-140.56 6480,-166 6480,-166 6480,-166 4536.67,-166 4536.67,-166"/>
<polygon fill="black" stroke="black" points="4536.67,-162.5 4526.67,-166 4536.67,-169.5 4536.67,-162.5"/>
</g>
<!-- DeleteBookInventoryComponent -->
<g id="node18" class="node">
<title>DeleteBookInventoryComponent</title>
<polygon fill="#ffffb3" stroke="black" points="6378.13,-122 6175.87,-122 6175.87,-86 6378.13,-86 6378.13,-122"/>
<text text-anchor="middle" x="6277" y="-99.8" font-family="Times,serif" font-size="14.00">DeleteBookInventoryComponent</text>
</g>
<!-- DeleteBookInventoryComponent&#45;&gt;AppModule -->
<g id="edge18" class="edge">
<title>DeleteBookInventoryComponent&#45;&gt;AppModule</title>
<path fill="none" stroke="black" d="M6277,-122.3C6277,-140.27 6277,-165 6277,-165 6277,-165 4536.66,-165 4536.66,-165"/>
<polygon fill="black" stroke="black" points="4536.66,-161.5 4526.66,-165 4536.66,-168.5 4536.66,-161.5"/>
</g>
<!-- DisplayInventoryComponent -->
<g id="node19" class="node">
<title>DisplayInventoryComponent</title>
<polygon fill="#ffffb3" stroke="black" points="6157.81,-122 5978.19,-122 5978.19,-86 6157.81,-86 6157.81,-122"/>
<text text-anchor="middle" x="6068" y="-99.8" font-family="Times,serif" font-size="14.00">DisplayInventoryComponent</text>
</g>
<!-- DisplayInventoryComponent&#45;&gt;AppModule -->
<g id="edge19" class="edge">
<title>DisplayInventoryComponent&#45;&gt;AppModule</title>
<path fill="none" stroke="black" d="M6068,-122C6068,-139.68 6068,-164 6068,-164 6068,-164 4536.93,-164 4536.93,-164"/>
<polygon fill="black" stroke="black" points="4536.93,-160.5 4526.93,-164 4536.93,-167.5 4536.93,-160.5"/>
</g>
<!-- FilterComponent -->
<g id="node20" class="node">
<title>FilterComponent</title>
<polygon fill="#ffffb3" stroke="black" points="5960.66,-122 5849.34,-122 5849.34,-86 5960.66,-86 5960.66,-122"/>
<text text-anchor="middle" x="5905" y="-99.8" font-family="Times,serif" font-size="14.00">FilterComponent</text>
</g>
<!-- FilterComponent&#45;&gt;AppModule -->
<g id="edge20" class="edge">
<title>FilterComponent&#45;&gt;AppModule</title>
<path fill="none" stroke="black" d="M5905,-122.02C5905,-139.37 5905,-163 5905,-163 5905,-163 4536.73,-163 4536.73,-163"/>
<polygon fill="black" stroke="black" points="4536.73,-159.5 4526.73,-163 4536.73,-166.5 4536.73,-159.5"/>
</g>
<!-- FooterComponent -->
<g id="node21" class="node">
<title>FooterComponent</title>
<polygon fill="#ffffb3" stroke="black" points="5830.88,-122 5713.12,-122 5713.12,-86 5830.88,-86 5830.88,-122"/>
<text text-anchor="middle" x="5772" y="-99.8" font-family="Times,serif" font-size="14.00">FooterComponent</text>
</g>
<!-- FooterComponent&#45;&gt;AppModule -->
<g id="edge21" class="edge">
<title>FooterComponent&#45;&gt;AppModule</title>
<path fill="none" stroke="black" d="M5772,-122.04C5772,-138.73 5772,-161 5772,-161 5772,-161 4536.73,-161 4536.73,-161"/>
<polygon fill="black" stroke="black" points="4536.73,-157.5 4526.73,-161 4536.73,-164.5 4536.73,-157.5"/>
</g>
<!-- HomeComponent -->
<g id="node22" class="node">
<title>HomeComponent</title>
<polygon fill="#ffffb3" stroke="black" points="5694.55,-122 5579.45,-122 5579.45,-86 5694.55,-86 5694.55,-122"/>
<text text-anchor="middle" x="5637" y="-99.8" font-family="Times,serif" font-size="14.00">HomeComponent</text>
</g>
<!-- HomeComponent&#45;&gt;AppModule -->
<g id="edge22" class="edge">
<title>HomeComponent&#45;&gt;AppModule</title>
<path fill="none" stroke="black" d="M5637,-122.03C5637,-138.4 5637,-160 5637,-160 5637,-160 4536.68,-160 4536.68,-160"/>
<polygon fill="black" stroke="black" points="4536.68,-156.5 4526.68,-160 4536.68,-163.5 4536.68,-156.5"/>
</g>
<!-- LeftSidebarComponent -->
<g id="node23" class="node">
<title>LeftSidebarComponent</title>
<polygon fill="#ffffb3" stroke="black" points="5561.91,-122 5414.09,-122 5414.09,-86 5561.91,-86 5561.91,-122"/>
<text text-anchor="middle" x="5488" y="-99.8" font-family="Times,serif" font-size="14.00">LeftSidebarComponent</text>
</g>
<!-- LeftSidebarComponent&#45;&gt;AppModule -->
<g id="edge23" class="edge">
<title>LeftSidebarComponent&#45;&gt;AppModule</title>
<path fill="none" stroke="black" d="M5488,-122.01C5488,-138.05 5488,-159 5488,-159 5488,-159 4536.82,-159 4536.82,-159"/>
<polygon fill="black" stroke="black" points="4536.82,-155.5 4526.82,-159 4536.82,-162.5 4536.82,-155.5"/>
</g>
<!-- LoginComponent -->
<g id="node24" class="node">
<title>LoginComponent</title>
<polygon fill="#ffffb3" stroke="black" points="5396.28,-122 5281.72,-122 5281.72,-86 5396.28,-86 5396.28,-122"/>
<text text-anchor="middle" x="5339" y="-99.8" font-family="Times,serif" font-size="14.00">LoginComponent</text>
</g>
<!-- LoginComponent&#45;&gt;AppModule -->
<g id="edge24" class="edge">
<title>LoginComponent&#45;&gt;AppModule</title>
<path fill="none" stroke="black" d="M5339,-122.28C5339,-137.95 5339,-158 5339,-158 5339,-158 4536.77,-158 4536.77,-158"/>
<polygon fill="black" stroke="black" points="4536.77,-154.5 4526.77,-158 4536.77,-161.5 4536.77,-154.5"/>
</g>
<!-- MainComponent -->
<g id="node25" class="node">
<title>MainComponent</title>
<polygon fill="#ffffb3" stroke="black" points="5263.38,-122 5152.62,-122 5152.62,-86 5263.38,-86 5263.38,-122"/>
<text text-anchor="middle" x="5208" y="-99.8" font-family="Times,serif" font-size="14.00">MainComponent</text>
</g>
<!-- MainComponent&#45;&gt;AppModule -->
<g id="edge25" class="edge">
<title>MainComponent&#45;&gt;AppModule</title>
<path fill="none" stroke="black" d="M5208,-122.19C5208,-137.18 5208,-156 5208,-156 5208,-156 4536.73,-156 4536.73,-156"/>
<polygon fill="black" stroke="black" points="4536.73,-152.5 4526.73,-156 4536.73,-159.5 4536.73,-152.5"/>
</g>
<!-- NavbarAdminComponent -->
<g id="node26" class="node">
<title>NavbarAdminComponent</title>
<polygon fill="#ffffb3" stroke="black" points="5134.92,-122 4973.08,-122 4973.08,-86 5134.92,-86 5134.92,-122"/>
<text text-anchor="middle" x="5054" y="-99.8" font-family="Times,serif" font-size="14.00">NavbarAdminComponent</text>
</g>
<!-- NavbarAdminComponent&#45;&gt;AppModule -->
<g id="edge26" class="edge">
<title>NavbarAdminComponent&#45;&gt;AppModule</title>
<path fill="none" stroke="black" d="M5054,-122.12C5054,-136.78 5054,-155 5054,-155 5054,-155 4536.84,-155 4536.84,-155"/>
<polygon fill="black" stroke="black" points="4536.84,-151.5 4526.84,-155 4536.84,-158.5 4536.84,-151.5"/>
</g>
<!-- NavbarComponent -->
<g id="node27" class="node">
<title>NavbarComponent</title>
<polygon fill="#ffffb3" stroke="black" points="4955.03,-122 4832.97,-122 4832.97,-86 4955.03,-86 4955.03,-122"/>
<text text-anchor="middle" x="4894" y="-99.8" font-family="Times,serif" font-size="14.00">NavbarComponent</text>
</g>
<!-- NavbarComponent&#45;&gt;AppModule -->
<g id="edge27" class="edge">
<title>NavbarComponent&#45;&gt;AppModule</title>
<path fill="none" stroke="black" d="M4894,-122.05C4894,-136.37 4894,-154 4894,-154 4894,-154 4536.85,-154 4536.85,-154"/>
<polygon fill="black" stroke="black" points="4536.85,-150.5 4526.85,-154 4536.85,-157.5 4536.85,-150.5"/>
</g>
<!-- OrderDetailsComponent -->
<g id="node28" class="node">
<title>OrderDetailsComponent</title>
<polygon fill="#ffffb3" stroke="black" points="4814.63,-122 4661.37,-122 4661.37,-86 4814.63,-86 4814.63,-122"/>
<text text-anchor="middle" x="4738" y="-99.8" font-family="Times,serif" font-size="14.00">OrderDetailsComponent</text>
</g>
<!-- OrderDetailsComponent&#45;&gt;AppModule -->
<g id="edge28" class="edge">
<title>OrderDetailsComponent&#45;&gt;AppModule</title>
<path fill="none" stroke="black" d="M4738,-122.25C4738,-136.18 4738,-153 4738,-153 4738,-153 4536.78,-153 4536.78,-153"/>
<polygon fill="black" stroke="black" points="4536.78,-149.5 4526.78,-153 4536.78,-156.5 4536.78,-149.5"/>
</g>
<!-- OrderListComponent -->
<g id="node29" class="node">
<title>OrderListComponent</title>
<polygon fill="#ffffb3" stroke="black" points="4642.75,-122 4507.25,-122 4507.25,-86 4642.75,-86 4642.75,-122"/>
<text text-anchor="middle" x="4575" y="-99.8" font-family="Times,serif" font-size="14.00">OrderListComponent</text>
</g>
<!-- OrderListComponent&#45;&gt;AppModule -->
<g id="edge29" class="edge">
<title>OrderListComponent&#45;&gt;AppModule</title>
<path fill="none" stroke="black" d="M4516.98,-122.11C4516.98,-122.11 4516.98,-140.99 4516.98,-140.99"/>
<polygon fill="black" stroke="black" points="4513.48,-140.99 4516.98,-150.99 4520.48,-140.99 4513.48,-140.99"/>
</g>
<!-- OrderManagementComponent -->
<g id="node30" class="node">
<title>OrderManagementComponent</title>
<polygon fill="#ffffb3" stroke="black" points="4489.56,-122 4302.44,-122 4302.44,-86 4489.56,-86 4489.56,-122"/>
<text text-anchor="middle" x="4396" y="-99.8" font-family="Times,serif" font-size="14.00">OrderManagementComponent</text>
</g>
<!-- OrderManagementComponent&#45;&gt;AppModule -->
<g id="edge30" class="edge">
<title>OrderManagementComponent&#45;&gt;AppModule</title>
<path fill="none" stroke="black" d="M4466.35,-122.11C4466.35,-122.11 4466.35,-140.99 4466.35,-140.99"/>
<polygon fill="black" stroke="black" points="4462.85,-140.99 4466.35,-150.99 4469.85,-140.99 4462.85,-140.99"/>
</g>
<!-- OrderTrackingComponent -->
<g id="node31" class="node">
<title>OrderTrackingComponent</title>
<polygon fill="#ffffb3" stroke="black" points="4284.01,-122 4119.99,-122 4119.99,-86 4284.01,-86 4284.01,-122"/>
<text text-anchor="middle" x="4202" y="-99.8" font-family="Times,serif" font-size="14.00">OrderTrackingComponent</text>
</g>
<!-- OrderTrackingComponent&#45;&gt;AppModule -->
<g id="edge31" class="edge">
<title>OrderTrackingComponent&#45;&gt;AppModule</title>
<path fill="none" stroke="black" d="M4202,-122.25C4202,-136.18 4202,-153 4202,-153 4202,-153 4433.24,-153 4433.24,-153"/>
<polygon fill="black" stroke="black" points="4433.24,-156.5 4443.24,-153 4433.24,-149.5 4433.24,-156.5"/>
</g>
<!-- PaymentComponent -->
<g id="node32" class="node">
<title>PaymentComponent</title>
<polygon fill="#ffffb3" stroke="black" points="4102.33,-122 3971.67,-122 3971.67,-86 4102.33,-86 4102.33,-122"/>
<text text-anchor="middle" x="4037" y="-99.8" font-family="Times,serif" font-size="14.00">PaymentComponent</text>
</g>
<!-- PaymentComponent&#45;&gt;AppModule -->
<g id="edge32" class="edge">
<title>PaymentComponent&#45;&gt;AppModule</title>
<path fill="none" stroke="black" d="M4037,-122.05C4037,-136.37 4037,-154 4037,-154 4037,-154 4433.26,-154 4433.26,-154"/>
<polygon fill="black" stroke="black" points="4433.26,-157.5 4443.26,-154 4433.26,-150.5 4433.26,-157.5"/>
</g>
<!-- PlaceOrderComponent -->
<g id="node33" class="node">
<title>PlaceOrderComponent</title>
<polygon fill="#ffffb3" stroke="black" points="3954.29,-122 3809.71,-122 3809.71,-86 3954.29,-86 3954.29,-122"/>
<text text-anchor="middle" x="3882" y="-99.8" font-family="Times,serif" font-size="14.00">PlaceOrderComponent</text>
</g>
<!-- PlaceOrderComponent&#45;&gt;AppModule -->
<g id="edge33" class="edge">
<title>PlaceOrderComponent&#45;&gt;AppModule</title>
<path fill="none" stroke="black" d="M3857.95,-122.19C3857.95,-137.18 3857.95,-156 3857.95,-156 3857.95,-156 4432.88,-156 4432.88,-156"/>
<polygon fill="black" stroke="black" points="4432.88,-159.5 4442.88,-156 4432.88,-152.5 4432.88,-159.5"/>
</g>
<!-- PlaceOrderComponent&#45;&gt;AppModule -->
<g id="edge34" class="edge">
<title>PlaceOrderComponent&#45;&gt;AppModule</title>
<path fill="none" stroke="black" d="M3906.05,-122.12C3906.05,-136.78 3906.05,-155 3906.05,-155 3906.05,-155 4432.9,-155 4432.9,-155"/>
<polygon fill="black" stroke="black" points="4432.9,-158.5 4442.9,-155 4432.9,-151.5 4432.9,-158.5"/>
</g>
<!-- ReviewComponent -->
<g id="node34" class="node">
<title>ReviewComponent</title>
<polygon fill="#ffffb3" stroke="black" points="3792.1,-122 3667.9,-122 3667.9,-86 3792.1,-86 3792.1,-122"/>
<text text-anchor="middle" x="3730" y="-99.8" font-family="Times,serif" font-size="14.00">ReviewComponent</text>
</g>
<!-- ReviewComponent&#45;&gt;AppModule -->
<g id="edge35" class="edge">
<title>ReviewComponent&#45;&gt;AppModule</title>
<path fill="none" stroke="black" d="M3730,-122.28C3730,-137.95 3730,-158 3730,-158 3730,-158 4433.33,-158 4433.33,-158"/>
<polygon fill="black" stroke="black" points="4433.33,-161.5 4443.33,-158 4433.33,-154.5 4433.33,-161.5"/>
</g>
<!-- ReviewsByBookIdComponent -->
<g id="node35" class="node">
<title>ReviewsByBookIdComponent</title>
<polygon fill="#ffffb3" stroke="black" points="3649.87,-122 3462.13,-122 3462.13,-86 3649.87,-86 3649.87,-122"/>
<text text-anchor="middle" x="3556" y="-99.8" font-family="Times,serif" font-size="14.00">ReviewsByBookIdComponent</text>
</g>
<!-- ReviewsByBookIdComponent&#45;&gt;AppModule -->
<g id="edge36" class="edge">
<title>ReviewsByBookIdComponent&#45;&gt;AppModule</title>
<path fill="none" stroke="black" d="M3556,-122.01C3556,-138.05 3556,-159 3556,-159 3556,-159 4433.28,-159 4433.28,-159"/>
<polygon fill="black" stroke="black" points="4433.28,-162.5 4443.28,-159 4433.28,-155.5 4433.28,-162.5"/>
</g>
<!-- ReviewsByUserIdComponent -->
<g id="node36" class="node">
<title>ReviewsByUserIdComponent</title>
<polygon fill="#ffffb3" stroke="black" points="3443.96,-122 3260.04,-122 3260.04,-86 3443.96,-86 3443.96,-122"/>
<text text-anchor="middle" x="3352" y="-99.8" font-family="Times,serif" font-size="14.00">ReviewsByUserIdComponent</text>
</g>
<!-- ReviewsByUserIdComponent&#45;&gt;AppModule -->
<g id="edge37" class="edge">
<title>ReviewsByUserIdComponent&#45;&gt;AppModule</title>
<path fill="none" stroke="black" d="M3352,-122.03C3352,-138.4 3352,-160 3352,-160 3352,-160 4433.33,-160 4433.33,-160"/>
<polygon fill="black" stroke="black" points="4433.33,-163.5 4443.33,-160 4433.33,-156.5 4433.33,-163.5"/>
</g>
<!-- SearchtitleComponent -->
<g id="node37" class="node">
<title>SearchtitleComponent</title>
<polygon fill="#ffffb3" stroke="black" points="3241.7,-122 3100.3,-122 3100.3,-86 3241.7,-86 3241.7,-122"/>
<text text-anchor="middle" x="3171" y="-99.8" font-family="Times,serif" font-size="14.00">SearchtitleComponent</text>
</g>
<!-- SearchtitleComponent&#45;&gt;AppModule -->
<g id="edge38" class="edge">
<title>SearchtitleComponent&#45;&gt;AppModule</title>
<path fill="none" stroke="black" d="M3171,-122.04C3171,-138.73 3171,-161 3171,-161 3171,-161 4433.14,-161 4433.14,-161"/>
<polygon fill="black" stroke="black" points="4433.14,-164.5 4443.14,-161 4433.14,-157.5 4433.14,-164.5"/>
</g>
<!-- SignupComponent -->
<g id="node38" class="node">
<title>SignupComponent</title>
<polygon fill="#ffffb3" stroke="black" points="3082.51,-122 2961.49,-122 2961.49,-86 3082.51,-86 3082.51,-122"/>
<text text-anchor="middle" x="3022" y="-99.8" font-family="Times,serif" font-size="14.00">SignupComponent</text>
</g>
<!-- SignupComponent&#45;&gt;AppModule -->
<g id="edge39" class="edge">
<title>SignupComponent&#45;&gt;AppModule</title>
<path fill="none" stroke="black" d="M3022,-122.02C3022,-139.37 3022,-163 3022,-163 3022,-163 4433.18,-163 4433.18,-163"/>
<polygon fill="black" stroke="black" points="4433.18,-166.5 4443.18,-163 4433.18,-159.5 4433.18,-166.5"/>
</g>
<!-- StarsComponent -->
<g id="node39" class="node">
<title>StarsComponent</title>
<polygon fill="#ffffb3" stroke="black" points="2943.83,-122 2834.17,-122 2834.17,-86 2943.83,-86 2943.83,-122"/>
<text text-anchor="middle" x="2889" y="-99.8" font-family="Times,serif" font-size="14.00">StarsComponent</text>
</g>
<!-- StarsComponent&#45;&gt;AppModule -->
<g id="edge40" class="edge">
<title>StarsComponent&#45;&gt;AppModule</title>
<path fill="none" stroke="black" d="M2889,-122C2889,-139.68 2889,-164 2889,-164 2889,-164 4433.13,-164 4433.13,-164"/>
<polygon fill="black" stroke="black" points="4433.13,-167.5 4443.13,-164 4433.13,-160.5 4433.13,-167.5"/>
</g>
<!-- UpdateQuantityComponent -->
<g id="node40" class="node">
<title>UpdateQuantityComponent</title>
<polygon fill="#ffffb3" stroke="black" points="2816.25,-122 2645.75,-122 2645.75,-86 2816.25,-86 2816.25,-122"/>
<text text-anchor="middle" x="2731" y="-99.8" font-family="Times,serif" font-size="14.00">UpdateQuantityComponent</text>
</g>
<!-- UpdateQuantityComponent&#45;&gt;AppModule -->
<g id="edge41" class="edge">
<title>UpdateQuantityComponent&#45;&gt;AppModule</title>
<path fill="none" stroke="black" d="M2731,-122.3C2731,-140.27 2731,-165 2731,-165 2731,-165 4432.94,-165 4432.94,-165"/>
<polygon fill="black" stroke="black" points="4432.94,-168.5 4442.94,-165 4432.94,-161.5 4432.94,-168.5"/>
</g>
<!-- UpdateTrackingComponent -->
<g id="node41" class="node">
<title>UpdateTrackingComponent</title>
<polygon fill="#ffffb3" stroke="black" points="2627.29,-122 2454.71,-122 2454.71,-86 2627.29,-86 2627.29,-122"/>
<text text-anchor="middle" x="2541" y="-99.8" font-family="Times,serif" font-size="14.00">UpdateTrackingComponent</text>
</g>
<!-- UpdateTrackingComponent&#45;&gt;AppModule -->
<g id="edge42" class="edge">
<title>UpdateTrackingComponent&#45;&gt;AppModule</title>
<path fill="none" stroke="black" d="M2541,-122.27C2541,-140.56 2541,-166 2541,-166 2541,-166 4433.04,-166 4433.04,-166"/>
<polygon fill="black" stroke="black" points="4433.04,-169.5 4443.04,-166 4433.04,-162.5 4433.04,-169.5"/>
</g>
<!-- UpdatebookComponent -->
<g id="node42" class="node">
<title>UpdatebookComponent</title>
<polygon fill="#ffffb3" stroke="black" points="2436.76,-122 2287.24,-122 2287.24,-86 2436.76,-86 2436.76,-122"/>
<text text-anchor="middle" x="2362" y="-99.8" font-family="Times,serif" font-size="14.00">UpdatebookComponent</text>
</g>
<!-- UpdatebookComponent&#45;&gt;AppModule -->
<g id="edge43" class="edge">
<title>UpdatebookComponent&#45;&gt;AppModule</title>
<path fill="none" stroke="black" d="M2362,-122.17C2362,-141.09 2362,-168 2362,-168 2362,-168 4433.07,-168 4433.07,-168"/>
<polygon fill="black" stroke="black" points="4433.07,-171.5 4443.07,-168 4433.07,-164.5 4433.07,-171.5"/>
</g>
<!-- UserProfileComponent -->
<g id="node43" class="node">
<title>UserProfileComponent</title>
<polygon fill="#ffffb3" stroke="black" points="2268.86,-122 2123.14,-122 2123.14,-86 2268.86,-86 2268.86,-122"/>
<text text-anchor="middle" x="2196" y="-99.8" font-family="Times,serif" font-size="14.00">UserProfileComponent</text>
</g>
<!-- UserProfileComponent&#45;&gt;AppModule -->
<g id="edge44" class="edge">
<title>UserProfileComponent&#45;&gt;AppModule</title>
<path fill="none" stroke="black" d="M2196,-122.11C2196,-141.34 2196,-169 2196,-169 2196,-169 4433.32,-169 4433.32,-169"/>
<polygon fill="black" stroke="black" points="4433.32,-172.5 4443.32,-169 4433.32,-165.5 4433.32,-172.5"/>
</g>
<!-- ViewAllReviewsComponent -->
<g id="node44" class="node">
<title>ViewAllReviewsComponent</title>
<polygon fill="#ffffb3" stroke="black" points="2104.75,-122 1927.25,-122 1927.25,-86 2104.75,-86 2104.75,-122"/>
<text text-anchor="middle" x="2016" y="-99.8" font-family="Times,serif" font-size="14.00">ViewAllReviewsComponent</text>
</g>
<!-- ViewAllReviewsComponent&#45;&gt;AppModule -->
<g id="edge45" class="edge">
<title>ViewAllReviewsComponent&#45;&gt;AppModule</title>
<path fill="none" stroke="black" d="M2016,-122.03C2016,-141.58 2016,-170 2016,-170 2016,-170 4433.18,-170 4433.18,-170"/>
<polygon fill="black" stroke="black" points="4433.18,-173.5 4443.18,-170 4433.18,-166.5 4433.18,-173.5"/>
</g>
<!-- ViewByBookIDComponent -->
<g id="node45" class="node">
<title>ViewByBookIDComponent</title>
<polygon fill="#ffffb3" stroke="black" points="1909.59,-122 1736.41,-122 1736.41,-86 1909.59,-86 1909.59,-122"/>
<text text-anchor="middle" x="1823" y="-99.8" font-family="Times,serif" font-size="14.00">ViewByBookIDComponent</text>
</g>
<!-- ViewByBookIDComponent&#45;&gt;AppModule -->
<g id="edge46" class="edge">
<title>ViewByBookIDComponent&#45;&gt;AppModule</title>
<path fill="none" stroke="black" d="M1823,-122.31C1823,-142.15 1823,-171 1823,-171 1823,-171 4433.19,-171 4433.19,-171"/>
<polygon fill="black" stroke="black" points="4433.19,-174.5 4443.19,-171 4433.19,-167.5 4433.19,-174.5"/>
</g>
<!-- ViewEditReviewComponent -->
<g id="node46" class="node">
<title>ViewEditReviewComponent</title>
<polygon fill="#ffffb3" stroke="black" points="1718.75,-122 1541.25,-122 1541.25,-86 1718.75,-86 1718.75,-122"/>
<text text-anchor="middle" x="1630" y="-99.8" font-family="Times,serif" font-size="14.00">ViewEditReviewComponent</text>
</g>
<!-- ViewEditReviewComponent&#45;&gt;AppModule -->
<g id="edge47" class="edge">
<title>ViewEditReviewComponent&#45;&gt;AppModule</title>
<path fill="none" stroke="black" d="M1630,-122.13C1630,-142.57 1630,-173 1630,-173 1630,-173 4433.26,-173 4433.26,-173"/>
<polygon fill="black" stroke="black" points="4433.26,-176.5 4443.26,-173 4433.26,-169.5 4433.26,-176.5"/>
</g>
<!-- ViewbookidComponent -->
<g id="node47" class="node">
<title>ViewbookidComponent</title>
<polygon fill="#ffffb3" stroke="black" points="1523.04,-122 1372.96,-122 1372.96,-86 1523.04,-86 1523.04,-122"/>
<text text-anchor="middle" x="1448" y="-99.8" font-family="Times,serif" font-size="14.00">ViewbookidComponent</text>
</g>
<!-- ViewbookidComponent&#45;&gt;AppModule -->
<g id="edge48" class="edge">
<title>ViewbookidComponent&#45;&gt;AppModule</title>
<path fill="none" stroke="black" d="M1422.91,-122.28C1422.91,-143.32 1422.91,-175 1422.91,-175 1422.91,-175 4433.17,-175 4433.17,-175"/>
<polygon fill="black" stroke="black" points="4433.17,-178.5 4443.17,-175 4433.17,-171.5 4433.17,-178.5"/>
</g>
<!-- ViewbookidComponent&#45;&gt;AppModule -->
<g id="edge49" class="edge">
<title>ViewbookidComponent&#45;&gt;AppModule</title>
<path fill="none" stroke="black" d="M1473.09,-122.03C1473.09,-142.77 1473.09,-174 1473.09,-174 1473.09,-174 4433.28,-174 4433.28,-174"/>
<polygon fill="black" stroke="black" points="4433.28,-177.5 4443.28,-174 4433.28,-170.5 4433.28,-177.5"/>
</g>
<!-- AppComponent  -->
<g id="node51" class="node">
<title>AppComponent </title>
<polygon fill="#80b1d3" stroke="black" points="4539.44,-252 4430.56,-252 4430.56,-216 4539.44,-216 4539.44,-252"/>
<text text-anchor="middle" x="4485" y="-229.8" font-family="Times,serif" font-size="14.00">AppComponent </text>
</g>
<!-- AppModule&#45;&gt;AppComponent  -->
<g id="edge52" class="edge">
<title>AppModule&#45;&gt;AppComponent </title>
<path fill="none" stroke="black" stroke-dasharray="1,5" d="M4485,-187.11C4485,-187.11 4485,-205.99 4485,-205.99"/>
<polygon fill="black" stroke="black" points="4481.5,-205.99 4485,-215.99 4488.5,-205.99 4481.5,-205.99"/>
</g>
<!-- AppRoutingModule -->
<g id="node49" class="node">
<title>AppRoutingModule</title>
<polygon fill="#8dd3c7" stroke="black" points="1349.27,-122 1346.27,-126 1325.27,-126 1322.27,-122 1220.73,-122 1220.73,-86 1349.27,-86 1349.27,-122"/>
<text text-anchor="middle" x="1285" y="-99.8" font-family="Times,serif" font-size="14.00">AppRoutingModule</text>
</g>
<!-- AppRoutingModule&#45;&gt;AppModule -->
<g id="edge50" class="edge">
<title>AppRoutingModule&#45;&gt;AppModule</title>
<path fill="none" stroke="black" d="M1285,-122.17C1285,-143.5 1285,-176 1285,-176 1285,-176 4433.07,-176 4433.07,-176"/>
<polygon fill="black" stroke="black" points="4433.07,-179.5 4443.07,-176 4433.07,-172.5 4433.07,-179.5"/>
</g>
<!-- RouterOutlet -->
<g id="node50" class="node">
<title>RouterOutlet</title>
<polygon fill="#8dd3c7" stroke="black" points="1202.6,-122 1199.6,-126 1178.6,-126 1175.6,-122 1113.4,-122 1113.4,-86 1202.6,-86 1202.6,-122"/>
<text text-anchor="middle" x="1158" y="-99.8" font-family="Times,serif" font-size="14.00">RouterOutlet</text>
</g>
<!-- RouterOutlet&#45;&gt;AppModule -->
<g id="edge51" class="edge">
<title>RouterOutlet&#45;&gt;AppModule</title>
<path fill="none" stroke="black" d="M1158,-122.29C1158,-144.21 1158,-178 1158,-178 1158,-178 4433.24,-178 4433.24,-178"/>
<polygon fill="black" stroke="black" points="4433.24,-181.5 4443.24,-178 4433.24,-174.5 4433.24,-181.5"/>
</g>
<!-- AuthInterceptor -->
<g id="node52" class="node">
<title>AuthInterceptor</title>
<ellipse fill="#fdb462" stroke="black" cx="1016" cy="-104" rx="72.91" ry="18"/>
<text text-anchor="middle" x="1016" y="-99.8" font-family="Times,serif" font-size="14.00">AuthInterceptor</text>
</g>
<!-- AuthInterceptor&#45;&gt;AppModule -->
<g id="edge53" class="edge">
<title>AuthInterceptor&#45;&gt;AppModule</title>
<path fill="none" stroke="black" d="M1016,-122.16C1016,-144.35 1016,-179 1016,-179 1016,-179 4433.32,-179 4433.32,-179"/>
<polygon fill="black" stroke="black" points="4433.32,-182.5 4443.32,-179 4433.32,-175.5 4433.32,-182.5"/>
</g>
<!-- BookInfoService -->
<g id="node53" class="node">
<title>BookInfoService</title>
<ellipse fill="#fdb462" stroke="black" cx="848" cy="-104" rx="77.01" ry="18"/>
<text text-anchor="middle" x="848" y="-99.8" font-family="Times,serif" font-size="14.00">BookInfoService</text>
</g>
<!-- BookInfoService&#45;&gt;AppModule -->
<g id="edge54" class="edge">
<title>BookInfoService&#45;&gt;AppModule</title>
<path fill="none" stroke="black" d="M848,-122.01C848,-144.49 848,-180 848,-180 848,-180 4433.21,-180 4433.21,-180"/>
<polygon fill="black" stroke="black" points="4433.21,-183.5 4443.21,-180 4433.21,-176.5 4433.21,-183.5"/>
</g>
<!-- BookService -->
<g id="node54" class="node">
<title>BookService</title>
<ellipse fill="#fdb462" stroke="black" cx="692" cy="-104" rx="60.84" ry="18"/>
<text text-anchor="middle" x="692" y="-99.8" font-family="Times,serif" font-size="14.00">BookService</text>
</g>
<!-- BookService&#45;&gt;AppModule -->
<g id="edge55" class="edge">
<title>BookService&#45;&gt;AppModule</title>
<path fill="none" stroke="black" d="M692,-122.25C692,-145.02 692,-181 692,-181 692,-181 4433.05,-181 4433.05,-181"/>
<polygon fill="black" stroke="black" points="4433.05,-184.5 4443.05,-181 4433.05,-177.5 4433.05,-184.5"/>
</g>
<!-- InventoryService -->
<g id="node55" class="node">
<title>InventoryService</title>
<ellipse fill="#fdb462" stroke="black" cx="536" cy="-104" rx="77.57" ry="18"/>
<text text-anchor="middle" x="536" y="-99.8" font-family="Times,serif" font-size="14.00">InventoryService</text>
</g>
<!-- InventoryService&#45;&gt;AppModule -->
<g id="edge56" class="edge">
<title>InventoryService&#45;&gt;AppModule</title>
<path fill="none" stroke="black" d="M536,-122.32C536,-145.66 536,-183 536,-183 536,-183 4433.32,-183 4433.32,-183"/>
<polygon fill="black" stroke="black" points="4433.32,-186.5 4443.32,-183 4433.32,-179.5 4433.32,-186.5"/>
</g>
<!-- OrderService -->
<g id="node56" class="node">
<title>OrderService</title>
<ellipse fill="#fdb462" stroke="black" cx="378" cy="-104" rx="62.52" ry="18"/>
<text text-anchor="middle" x="378" y="-99.8" font-family="Times,serif" font-size="14.00">OrderService</text>
</g>
<!-- OrderService&#45;&gt;AppModule -->
<g id="edge57" class="edge">
<title>OrderService&#45;&gt;AppModule</title>
<path fill="none" stroke="black" d="M378,-122.15C378,-145.76 378,-184 378,-184 378,-184 4433.01,-184 4433.01,-184"/>
<polygon fill="black" stroke="black" points="4433.01,-187.5 4443.01,-184 4433.01,-180.5 4433.01,-187.5"/>
</g>
<!-- ReviewService -->
<g id="node57" class="node">
<title>ReviewService</title>
<ellipse fill="#fdb462" stroke="black" cx="228" cy="-104" rx="69.48" ry="18"/>
<text text-anchor="middle" x="228" y="-99.8" font-family="Times,serif" font-size="14.00">ReviewService</text>
</g>
<!-- ReviewService&#45;&gt;AppModule -->
<g id="edge58" class="edge">
<title>ReviewService&#45;&gt;AppModule</title>
<path fill="none" stroke="black" d="M228,-122.38C228,-146.28 228,-185 228,-185 228,-185 4433.21,-185 4433.21,-185"/>
<polygon fill="black" stroke="black" points="4433.21,-188.5 4443.21,-185 4433.21,-181.5 4433.21,-188.5"/>
</g>
<!-- UserService -->
<g id="node58" class="node">
<title>UserService</title>
<ellipse fill="#fdb462" stroke="black" cx="82" cy="-104" rx="58.44" ry="18"/>
<text text-anchor="middle" x="82" y="-99.8" font-family="Times,serif" font-size="14.00">UserService</text>
</g>
<!-- UserService&#45;&gt;AppModule -->
<g id="edge59" class="edge">
<title>UserService&#45;&gt;AppModule</title>
<path fill="none" stroke="black" d="M82,-122.2C82,-146.36 82,-186 82,-186 82,-186 4433.18,-186 4433.18,-186"/>
<polygon fill="black" stroke="black" points="4433.18,-189.5 4443.18,-186 4433.18,-182.5 4433.18,-189.5"/>
</g>
</g>
</svg>
